ply
format ascii 1.0
comment Created by Blender 2.82 (sub 7) - www.blender.org, source file: ''
element vertex 320
property float x
property float y
property float z
property float nx
property float ny
property float nz
property uchar red
property uchar green
property uchar blue
property uchar alpha
element face 80
property list uchar uint vertex_indices
end_header
115.199890 -92.159904 -0.000000 -0.000000 -0.000000 -1.000000 64 64 64 255
92.159897 -92.159904 -0.000000 -0.000000 -0.000000 -1.000000 64 64 64 255
92.159889 -69.119896 -0.000000 -0.000000 -0.000000 -1.000000 64 64 64 255
115.199883 -69.119896 -0.000000 -0.000000 -0.000000 -1.000000 64 64 64 255
92.159897 -92.159904 -0.000000 -0.000000 -0.000000 -1.000000 255 255 255 255
69.119904 -92.159904 -0.000000 -0.000000 -0.000000 -1.000000 255 255 255 255
69.119896 -69.119904 -0.000000 -0.000000 -0.000000 -1.000000 255 255 255 255
92.159889 -69.119896 -0.000000 -0.000000 -0.000000 -1.000000 255 255 255 255
69.119904 -92.159904 -0.000000 -0.000000 -0.000000 -1.000000 64 64 64 255
46.080006 -92.159904 -0.000000 -0.000000 -0.000000 -1.000000 64 64 64 255
46.080006 -69.119904 -0.000000 -0.000000 -0.000000 -1.000000 64 64 64 255
69.119896 -69.119904 -0.000000 -0.000000 -0.000000 -1.000000 64 64 64 255
46.080006 -92.159904 -0.000000 -0.000000 0.000000 -1.000000 255 255 255 255
23.040005 -92.159904 -0.000000 -0.000000 0.000000 -1.000000 255 255 255 255
23.040005 -69.119896 -0.000000 -0.000000 0.000000 -1.000000 255 255 255 255
46.080006 -69.119904 -0.000000 -0.000000 0.000000 -1.000000 255 255 255 255
23.040005 -92.159904 -0.000000 -0.000000 0.000000 -1.000000 64 64 64 255
0.000004 -92.159904 0.000000 -0.000000 0.000000 -1.000000 64 64 64 255
0.000003 -69.119896 0.000000 -0.000000 0.000000 -1.000000 64 64 64 255
23.040005 -69.119896 -0.000000 -0.000000 0.000000 -1.000000 64 64 64 255
0.000004 -92.159904 0.000000 -0.000000 0.000000 -1.000000 255 255 255 255
-23.039997 -92.159904 0.000000 -0.000000 0.000000 -1.000000 255 255 255 255
-23.039997 -69.119896 0.000000 -0.000000 0.000000 -1.000000 255 255 255 255
0.000003 -69.119896 0.000000 -0.000000 0.000000 -1.000000 255 255 255 255
-23.039997 -92.159904 0.000000 -0.000000 0.000000 -1.000000 64 64 64 255
-46.080002 -92.159904 0.000000 -0.000000 0.000000 -1.000000 64 64 64 255
-46.080002 -69.119896 0.000000 -0.000000 0.000000 -1.000000 64 64 64 255
-23.039997 -69.119896 0.000000 -0.000000 0.000000 -1.000000 64 64 64 255
-46.080002 -92.159904 0.000000 -0.000000 -0.000000 -1.000000 255 255 255 255
-69.119881 -92.159904 0.000000 -0.000000 -0.000000 -1.000000 255 255 255 255
-69.119888 -69.119896 0.000000 -0.000000 -0.000000 -1.000000 255 255 255 255
-46.080002 -69.119896 0.000000 -0.000000 -0.000000 -1.000000 255 255 255 255
-69.119881 -92.159904 0.000000 -0.000000 -0.000000 -1.000000 64 64 64 255
-92.159874 -92.159912 0.000000 -0.000000 -0.000000 -1.000000 64 64 64 255
-92.159882 -69.119896 0.000000 -0.000000 -0.000000 -1.000000 64 64 64 255
-69.119888 -69.119896 0.000000 -0.000000 -0.000000 -1.000000 64 64 64 255
-92.159874 -92.159912 0.000000 -0.000000 -0.000000 -1.000000 255 255 255 255
-115.199883 -92.159904 0.000000 -0.000000 -0.000000 -1.000000 255 255 255 255
-115.199890 -69.119896 0.000000 -0.000000 -0.000000 -1.000000 255 255 255 255
-92.159882 -69.119896 0.000000 -0.000000 -0.000000 -1.000000 255 255 255 255
115.199883 -69.119896 -0.000000 -0.000000 0.000000 -1.000000 255 255 255 255
92.159889 -69.119896 -0.000000 -0.000000 0.000000 -1.000000 255 255 255 255
92.159889 -46.080021 -0.000000 -0.000000 0.000000 -1.000000 255 255 255 255
115.199883 -46.080021 -0.000000 -0.000000 0.000000 -1.000000 255 255 255 255
92.159889 -69.119896 -0.000000 -0.000000 0.000000 -1.000000 64 64 64 255
69.119896 -69.119904 -0.000000 -0.000000 0.000000 -1.000000 64 64 64 255
69.119896 -46.080017 -0.000000 -0.000000 0.000000 -1.000000 64 64 64 255
92.159889 -46.080021 -0.000000 -0.000000 0.000000 -1.000000 64 64 64 255
69.119896 -69.119904 -0.000000 -0.000000 0.000000 -1.000000 255 255 255 255
46.080006 -69.119904 -0.000000 -0.000000 0.000000 -1.000000 255 255 255 255
46.080006 -46.080017 -0.000000 -0.000000 0.000000 -1.000000 255 255 255 255
69.119896 -46.080017 -0.000000 -0.000000 0.000000 -1.000000 255 255 255 255
46.080006 -69.119904 -0.000000 -0.000000 -0.000000 -1.000000 64 64 64 255
23.040005 -69.119896 -0.000000 -0.000000 -0.000000 -1.000000 64 64 64 255
23.040003 -46.080017 -0.000000 -0.000000 -0.000000 -1.000000 64 64 64 255
46.080006 -46.080017 -0.000000 -0.000000 -0.000000 -1.000000 64 64 64 255
23.040005 -69.119896 -0.000000 -0.000000 -0.000000 -1.000000 255 255 255 255
0.000003 -69.119896 0.000000 -0.000000 -0.000000 -1.000000 255 255 255 255
0.000002 -46.080017 0.000000 -0.000000 -0.000000 -1.000000 255 255 255 255
23.040003 -46.080017 -0.000000 -0.000000 -0.000000 -1.000000 255 255 255 255
0.000003 -69.119896 0.000000 -0.000000 -0.000000 -1.000000 64 64 64 255
-23.039997 -69.119896 0.000000 -0.000000 -0.000000 -1.000000 64 64 64 255
-23.039999 -46.080017 0.000000 -0.000000 -0.000000 -1.000000 64 64 64 255
0.000002 -46.080017 0.000000 -0.000000 -0.000000 -1.000000 64 64 64 255
-23.039997 -69.119896 0.000000 -0.000000 -0.000000 -1.000000 255 255 255 255
-46.080002 -69.119896 0.000000 -0.000000 -0.000000 -1.000000 255 255 255 255
-46.079998 -46.080021 0.000000 -0.000000 -0.000000 -1.000000 255 255 255 255
-23.039999 -46.080017 0.000000 -0.000000 -0.000000 -1.000000 255 255 255 255
-46.080002 -69.119896 0.000000 -0.000000 -0.000000 -1.000000 64 64 64 255
-69.119888 -69.119896 0.000000 -0.000000 -0.000000 -1.000000 64 64 64 255
-69.119888 -46.080021 0.000000 -0.000000 -0.000000 -1.000000 64 64 64 255
-46.079998 -46.080021 0.000000 -0.000000 -0.000000 -1.000000 64 64 64 255
-69.119888 -69.119896 0.000000 -0.000000 0.000000 -1.000000 255 255 255 255
-92.159882 -69.119896 0.000000 -0.000000 0.000000 -1.000000 255 255 255 255
-92.159882 -46.080021 0.000000 -0.000000 0.000000 -1.000000 255 255 255 255
-69.119888 -46.080021 0.000000 -0.000000 0.000000 -1.000000 255 255 255 255
-92.159882 -69.119896 0.000000 -0.000000 0.000000 -1.000000 64 64 64 255
-115.199890 -69.119896 0.000000 -0.000000 0.000000 -1.000000 64 64 64 255
-115.199890 -46.080017 0.000000 -0.000000 0.000000 -1.000000 64 64 64 255
-92.159882 -46.080021 0.000000 -0.000000 0.000000 -1.000000 64 64 64 255
115.199883 -46.080021 -0.000000 -0.000000 0.000000 -1.000000 64 64 64 255
92.159889 -46.080021 -0.000000 -0.000000 0.000000 -1.000000 64 64 64 255
92.159889 -23.040005 -0.000000 -0.000000 0.000000 -1.000000 64 64 64 255
115.199883 -23.040003 -0.000000 -0.000000 0.000000 -1.000000 64 64 64 255
92.159889 -46.080021 -0.000000 -0.000000 0.000000 -1.000000 255 255 255 255
69.119896 -46.080017 -0.000000 -0.000000 0.000000 -1.000000 255 255 255 255
69.119896 -23.040005 -0.000000 -0.000000 0.000000 -1.000000 255 255 255 255
92.159889 -23.040005 -0.000000 -0.000000 0.000000 -1.000000 255 255 255 255
69.119896 -46.080017 -0.000000 -0.000000 -0.000000 -1.000000 64 64 64 255
46.080006 -46.080017 -0.000000 -0.000000 -0.000000 -1.000000 64 64 64 255
46.080002 -23.039999 -0.000000 -0.000000 -0.000000 -1.000000 64 64 64 255
69.119896 -23.040005 -0.000000 -0.000000 -0.000000 -1.000000 64 64 64 255
46.080006 -46.080017 -0.000000 -0.000000 -0.000000 -1.000000 255 255 255 255
23.040003 -46.080017 -0.000000 -0.000000 -0.000000 -1.000000 255 255 255 255
23.040003 -23.039999 -0.000000 -0.000000 -0.000000 -1.000000 255 255 255 255
46.080002 -23.039999 -0.000000 -0.000000 -0.000000 -1.000000 255 255 255 255
23.040003 -46.080017 -0.000000 -0.000000 0.000000 -1.000000 64 64 64 255
0.000002 -46.080017 0.000000 -0.000000 0.000000 -1.000000 64 64 64 255
0.000001 -23.040001 0.000000 -0.000000 0.000000 -1.000000 64 64 64 255
23.040003 -23.039999 -0.000000 -0.000000 0.000000 -1.000000 64 64 64 255
0.000002 -46.080017 0.000000 -0.000000 -0.000000 -1.000000 255 255 255 255
-23.039999 -46.080017 0.000000 -0.000000 -0.000000 -1.000000 255 255 255 255
-23.039995 -23.040003 0.000000 -0.000000 -0.000000 -1.000000 255 255 255 255
0.000001 -23.040001 0.000000 -0.000000 -0.000000 -1.000000 255 255 255 255
-23.039999 -46.080017 0.000000 -0.000000 -0.000000 -1.000000 64 64 64 255
-46.079998 -46.080021 0.000000 -0.000000 -0.000000 -1.000000 64 64 64 255
-46.080002 -23.040003 0.000000 -0.000000 -0.000000 -1.000000 64 64 64 255
-23.039995 -23.040003 0.000000 -0.000000 -0.000000 -1.000000 64 64 64 255
-46.079998 -46.080021 0.000000 -0.000000 -0.000000 -1.000000 255 255 255 255
-69.119888 -46.080021 0.000000 -0.000000 -0.000000 -1.000000 255 255 255 255
-69.119888 -23.040005 0.000000 -0.000000 -0.000000 -1.000000 255 255 255 255
-46.080002 -23.040003 0.000000 -0.000000 -0.000000 -1.000000 255 255 255 255
-69.119888 -46.080021 0.000000 -0.000000 0.000000 -1.000000 64 64 64 255
-92.159882 -46.080021 0.000000 -0.000000 0.000000 -1.000000 64 64 64 255
-92.159882 -23.040005 0.000000 -0.000000 0.000000 -1.000000 64 64 64 255
-69.119888 -23.040005 0.000000 -0.000000 0.000000 -1.000000 64 64 64 255
-92.159882 -46.080021 0.000000 -0.000000 0.000000 -1.000000 255 255 255 255
-115.199890 -46.080017 0.000000 -0.000000 0.000000 -1.000000 255 255 255 255
-115.199890 -23.040007 0.000000 -0.000000 0.000000 -1.000000 255 255 255 255
-92.159882 -23.040005 0.000000 -0.000000 0.000000 -1.000000 255 255 255 255
115.199883 -23.040003 -0.000000 -0.000000 0.000000 -1.000000 255 255 255 255
92.159889 -23.040005 -0.000000 -0.000000 0.000000 -1.000000 255 255 255 255
92.159889 -0.000004 -0.000000 -0.000000 0.000000 -1.000000 255 255 255 255
115.199883 -0.000003 -0.000000 -0.000000 0.000000 -1.000000 255 255 255 255
92.159889 -23.040005 -0.000000 -0.000000 0.000000 -1.000000 64 64 64 255
69.119896 -23.040005 -0.000000 -0.000000 0.000000 -1.000000 64 64 64 255
69.119896 -0.000005 -0.000000 -0.000000 0.000000 -1.000000 64 64 64 255
92.159889 -0.000004 -0.000000 -0.000000 0.000000 -1.000000 64 64 64 255
69.119896 -23.040005 -0.000000 -0.000000 0.000000 -1.000000 255 255 255 255
46.080002 -23.039999 -0.000000 -0.000000 0.000000 -1.000000 255 255 255 255
46.080002 -0.000006 -0.000000 -0.000000 0.000000 -1.000000 255 255 255 255
69.119896 -0.000005 -0.000000 -0.000000 0.000000 -1.000000 255 255 255 255
46.080002 -23.039999 -0.000000 -0.000000 -0.000000 -1.000000 64 64 64 255
23.040003 -23.039999 -0.000000 -0.000000 -0.000000 -1.000000 64 64 64 255
23.040001 -0.000007 -0.000000 -0.000000 -0.000000 -1.000000 64 64 64 255
46.080002 -0.000006 -0.000000 -0.000000 -0.000000 -1.000000 64 64 64 255
23.040003 -23.039999 -0.000000 -0.000000 -0.000000 -1.000000 255 255 255 255
0.000001 -23.040001 0.000000 -0.000000 -0.000000 -1.000000 255 255 255 255
0.000000 0.000000 0.000000 -0.000000 -0.000000 -1.000000 255 255 255 255
23.040001 -0.000007 -0.000000 -0.000000 -0.000000 -1.000000 255 255 255 255
0.000001 -23.040001 0.000000 -0.000000 -0.000000 -1.000000 64 64 64 255
-23.039995 -23.040003 0.000000 -0.000000 -0.000000 -1.000000 64 64 64 255
-23.039997 -0.000001 0.000000 -0.000000 -0.000000 -1.000000 64 64 64 255
0.000000 0.000000 0.000000 -0.000000 -0.000000 -1.000000 64 64 64 255
-23.039995 -23.040003 0.000000 -0.000000 -0.000000 -1.000000 255 255 255 255
-46.080002 -23.040003 0.000000 -0.000000 -0.000000 -1.000000 255 255 255 255
-46.080002 -0.000002 0.000000 -0.000000 -0.000000 -1.000000 255 255 255 255
-23.039997 -0.000001 0.000000 -0.000000 -0.000000 -1.000000 255 255 255 255
-46.080002 -23.040003 0.000000 -0.000000 0.000000 -1.000000 64 64 64 255
-69.119888 -23.040005 0.000000 -0.000000 0.000000 -1.000000 64 64 64 255
-69.119888 -0.000003 0.000000 -0.000000 0.000000 -1.000000 64 64 64 255
-46.080002 -0.000002 0.000000 -0.000000 0.000000 -1.000000 64 64 64 255
-69.119888 -23.040005 0.000000 -0.000000 0.000000 -1.000000 255 255 255 255
-92.159882 -23.040005 0.000000 -0.000000 0.000000 -1.000000 255 255 255 255
-92.159882 -0.000004 0.000000 -0.000000 0.000000 -1.000000 255 255 255 255
-69.119888 -0.000003 0.000000 -0.000000 0.000000 -1.000000 255 255 255 255
-92.159882 -23.040005 0.000000 -0.000000 0.000000 -1.000000 64 64 64 255
-115.199890 -23.040007 0.000000 -0.000000 0.000000 -1.000000 64 64 64 255
-115.199890 -0.000005 0.000000 -0.000000 0.000000 -1.000000 64 64 64 255
-92.159882 -0.000004 0.000000 -0.000000 0.000000 -1.000000 64 64 64 255
115.199883 -0.000003 -0.000000 -0.000000 0.000000 -1.000000 64 64 64 255
92.159889 -0.000004 -0.000000 -0.000000 0.000000 -1.000000 64 64 64 255
92.159889 23.039997 -0.000000 -0.000000 0.000000 -1.000000 64 64 64 255
115.199883 23.039999 -0.000000 -0.000000 0.000000 -1.000000 64 64 64 255
92.159889 -0.000004 -0.000000 -0.000000 0.000000 -1.000000 255 255 255 255
69.119896 -0.000005 -0.000000 -0.000000 0.000000 -1.000000 255 255 255 255
69.119896 23.039997 -0.000000 -0.000000 0.000000 -1.000000 255 255 255 255
92.159889 23.039997 -0.000000 -0.000000 0.000000 -1.000000 255 255 255 255
69.119896 -0.000005 -0.000000 -0.000000 -0.000000 -1.000000 64 64 64 255
46.080002 -0.000006 -0.000000 -0.000000 -0.000000 -1.000000 64 64 64 255
46.080009 23.039995 -0.000000 -0.000000 -0.000000 -1.000000 64 64 64 255
69.119896 23.039997 -0.000000 -0.000000 -0.000000 -1.000000 64 64 64 255
46.080002 -0.000006 -0.000000 -0.000000 -0.000000 -1.000000 255 255 255 255
23.040001 -0.000007 -0.000000 -0.000000 -0.000000 -1.000000 255 255 255 255
23.040007 23.039995 -0.000000 -0.000000 -0.000000 -1.000000 255 255 255 255
46.080009 23.039995 -0.000000 -0.000000 -0.000000 -1.000000 255 255 255 255
23.040001 -0.000007 -0.000000 -0.000000 -0.000000 -1.000000 64 64 64 255
0.000000 0.000000 0.000000 -0.000000 -0.000000 -1.000000 64 64 64 255
0.000007 23.040001 0.000000 -0.000000 -0.000000 -1.000000 64 64 64 255
23.040007 23.039995 -0.000000 -0.000000 -0.000000 -1.000000 64 64 64 255
0.000000 0.000000 0.000000 -0.000000 -0.000000 -1.000000 255 255 255 255
-23.039997 -0.000001 0.000000 -0.000000 -0.000000 -1.000000 255 255 255 255
-23.039999 23.039999 0.000000 -0.000000 -0.000000 -1.000000 255 255 255 255
0.000007 23.040001 0.000000 -0.000000 -0.000000 -1.000000 255 255 255 255
-23.039997 -0.000001 0.000000 -0.000000 -0.000000 -1.000000 64 64 64 255
-46.080002 -0.000002 0.000000 -0.000000 -0.000000 -1.000000 64 64 64 255
-46.080002 23.039999 0.000000 -0.000000 -0.000000 -1.000000 64 64 64 255
-23.039999 23.039999 0.000000 -0.000000 -0.000000 -1.000000 64 64 64 255
-46.080002 -0.000002 0.000000 -0.000000 -0.000000 -1.000000 255 255 255 255
-69.119888 -0.000003 0.000000 -0.000000 -0.000000 -1.000000 255 255 255 255
-69.119881 23.039997 0.000000 -0.000000 -0.000000 -1.000000 255 255 255 255
-46.080002 23.039999 0.000000 -0.000000 -0.000000 -1.000000 255 255 255 255
-69.119888 -0.000003 0.000000 -0.000000 -0.000000 -1.000000 64 64 64 255
-92.159882 -0.000004 0.000000 -0.000000 -0.000000 -1.000000 64 64 64 255
-92.159882 23.039997 0.000000 -0.000000 -0.000000 -1.000000 64 64 64 255
-69.119881 23.039997 0.000000 -0.000000 -0.000000 -1.000000 64 64 64 255
-92.159882 -0.000004 0.000000 -0.000000 0.000000 -1.000000 255 255 255 255
-115.199890 -0.000005 0.000000 -0.000000 0.000000 -1.000000 255 255 255 255
-115.199890 23.039995 0.000000 -0.000000 0.000000 -1.000000 255 255 255 255
-92.159882 23.039997 0.000000 -0.000000 0.000000 -1.000000 255 255 255 255
115.199883 23.039999 -0.000000 -0.000000 0.000000 -1.000000 255 255 255 255
92.159889 23.039997 -0.000000 -0.000000 0.000000 -1.000000 255 255 255 255
92.159889 46.080006 -0.000000 -0.000000 0.000000 -1.000000 255 255 255 255
115.199883 46.080006 -0.000000 -0.000000 0.000000 -1.000000 255 255 255 255
92.159889 23.039997 -0.000000 -0.000000 0.000000 -1.000000 64 64 64 255
69.119896 23.039997 -0.000000 -0.000000 0.000000 -1.000000 64 64 64 255
69.119896 46.080006 -0.000000 -0.000000 0.000000 -1.000000 64 64 64 255
92.159889 46.080006 -0.000000 -0.000000 0.000000 -1.000000 64 64 64 255
69.119896 23.039997 -0.000000 -0.000000 -0.000000 -1.000000 255 255 255 255
46.080009 23.039995 -0.000000 -0.000000 -0.000000 -1.000000 255 255 255 255
46.080006 46.080006 -0.000000 -0.000000 -0.000000 -1.000000 255 255 255 255
69.119896 46.080006 -0.000000 -0.000000 -0.000000 -1.000000 255 255 255 255
46.080009 23.039995 -0.000000 -0.000000 -0.000000 -1.000000 64 64 64 255
23.040007 23.039995 -0.000000 -0.000000 -0.000000 -1.000000 64 64 64 255
23.040007 46.080002 -0.000000 -0.000000 -0.000000 -1.000000 64 64 64 255
46.080006 46.080006 -0.000000 -0.000000 -0.000000 -1.000000 64 64 64 255
23.040007 23.039995 -0.000000 -0.000000 0.000000 -1.000000 255 255 255 255
0.000007 23.040001 0.000000 -0.000000 0.000000 -1.000000 255 255 255 255
0.000006 46.080002 0.000000 -0.000000 0.000000 -1.000000 255 255 255 255
23.040007 46.080002 -0.000000 -0.000000 0.000000 -1.000000 255 255 255 255
0.000007 23.040001 0.000000 -0.000000 0.000000 -1.000000 64 64 64 255
-23.039999 23.039999 0.000000 -0.000000 0.000000 -1.000000 64 64 64 255
-23.039999 46.080002 0.000000 -0.000000 0.000000 -1.000000 64 64 64 255
0.000006 46.080002 0.000000 -0.000000 0.000000 -1.000000 64 64 64 255
-23.039999 23.039999 0.000000 -0.000000 -0.000000 -1.000000 255 255 255 255
-46.080002 23.039999 0.000000 -0.000000 -0.000000 -1.000000 255 255 255 255
-46.080006 46.079998 0.000000 -0.000000 -0.000000 -1.000000 255 255 255 255
-23.039999 46.080002 0.000000 -0.000000 -0.000000 -1.000000 255 255 255 255
-46.080002 23.039999 0.000000 -0.000000 -0.000000 -1.000000 64 64 64 255
-69.119881 23.039997 0.000000 -0.000000 -0.000000 -1.000000 64 64 64 255
-69.119881 46.079998 0.000000 -0.000000 -0.000000 -1.000000 64 64 64 255
-46.080006 46.079998 0.000000 -0.000000 -0.000000 -1.000000 64 64 64 255
-69.119881 23.039997 0.000000 -0.000000 0.000000 -1.000000 255 255 255 255
-92.159882 23.039997 0.000000 -0.000000 0.000000 -1.000000 255 255 255 255
-92.159874 46.079998 0.000000 -0.000000 0.000000 -1.000000 255 255 255 255
-69.119881 46.079998 0.000000 -0.000000 0.000000 -1.000000 255 255 255 255
-92.159882 23.039997 0.000000 -0.000000 0.000000 -1.000000 64 64 64 255
-115.199890 23.039995 0.000000 -0.000000 0.000000 -1.000000 64 64 64 255
-115.199890 46.079998 0.000000 -0.000000 0.000000 -1.000000 64 64 64 255
-92.159874 46.079998 0.000000 -0.000000 0.000000 -1.000000 64 64 64 255
115.199883 46.080006 -0.000000 -0.000000 0.000000 -1.000000 64 64 64 255
92.159889 46.080006 -0.000000 -0.000000 0.000000 -1.000000 64 64 64 255
92.159889 69.119911 -0.000000 -0.000000 0.000000 -1.000000 64 64 64 255
115.199883 69.119896 -0.000000 -0.000000 0.000000 -1.000000 64 64 64 255
92.159889 46.080006 -0.000000 -0.000000 0.000000 -1.000000 255 255 255 255
69.119896 46.080006 -0.000000 -0.000000 0.000000 -1.000000 255 255 255 255
69.119896 69.119904 -0.000000 -0.000000 0.000000 -1.000000 255 255 255 255
92.159889 69.119911 -0.000000 -0.000000 0.000000 -1.000000 255 255 255 255
69.119896 46.080006 -0.000000 -0.000000 0.000000 -1.000000 64 64 64 255
46.080006 46.080006 -0.000000 -0.000000 0.000000 -1.000000 64 64 64 255
46.080006 69.119904 -0.000000 -0.000000 0.000000 -1.000000 64 64 64 255
69.119896 69.119904 -0.000000 -0.000000 0.000000 -1.000000 64 64 64 255
46.080006 46.080006 -0.000000 -0.000000 -0.000000 -1.000000 255 255 255 255
23.040007 46.080002 -0.000000 -0.000000 -0.000000 -1.000000 255 255 255 255
23.040005 69.119904 -0.000000 -0.000000 -0.000000 -1.000000 255 255 255 255
46.080006 69.119904 -0.000000 -0.000000 -0.000000 -1.000000 255 255 255 255
23.040007 46.080002 -0.000000 -0.000000 -0.000000 -1.000000 64 64 64 255
0.000006 46.080002 0.000000 -0.000000 -0.000000 -1.000000 64 64 64 255
0.000005 69.119904 0.000000 -0.000000 -0.000000 -1.000000 64 64 64 255
23.040005 69.119904 -0.000000 -0.000000 -0.000000 -1.000000 64 64 64 255
0.000006 46.080002 0.000000 -0.000000 -0.000000 -1.000000 255 255 255 255
-23.039999 46.080002 0.000000 -0.000000 -0.000000 -1.000000 255 255 255 255
-23.039997 69.119904 0.000000 -0.000000 -0.000000 -1.000000 255 255 255 255
0.000005 69.119904 0.000000 -0.000000 -0.000000 -1.000000 255 255 255 255
-23.039999 46.080002 0.000000 -0.000000 -0.000000 -1.000000 64 64 64 255
-46.080006 46.079998 0.000000 -0.000000 -0.000000 -1.000000 64 64 64 255
-46.080006 69.119904 0.000000 -0.000000 -0.000000 -1.000000 64 64 64 255
-23.039997 69.119904 0.000000 -0.000000 -0.000000 -1.000000 64 64 64 255
-46.080006 46.079998 0.000000 -0.000000 0.000000 -1.000000 255 255 255 255
-69.119881 46.079998 0.000000 -0.000000 0.000000 -1.000000 255 255 255 255
-69.119881 69.119904 0.000000 -0.000000 0.000000 -1.000000 255 255 255 255
-46.080006 69.119904 0.000000 -0.000000 0.000000 -1.000000 255 255 255 255
-69.119881 46.079998 0.000000 -0.000000 0.000000 -1.000000 64 64 64 255
-92.159874 46.079998 0.000000 -0.000000 0.000000 -1.000000 64 64 64 255
-92.159874 69.119896 0.000000 -0.000000 0.000000 -1.000000 64 64 64 255
-69.119881 69.119904 0.000000 -0.000000 0.000000 -1.000000 64 64 64 255
-92.159874 46.079998 0.000000 -0.000000 0.000000 -1.000000 255 255 255 255
-115.199890 46.079998 0.000000 -0.000000 0.000000 -1.000000 255 255 255 255
-115.199883 69.119896 0.000000 -0.000000 0.000000 -1.000000 255 255 255 255
-92.159874 69.119896 0.000000 -0.000000 0.000000 -1.000000 255 255 255 255
115.199883 69.119896 -0.000000 -0.000000 -0.000000 -1.000000 255 255 255 255
92.159889 69.119911 -0.000000 -0.000000 -0.000000 -1.000000 255 255 255 255
92.159882 92.159889 -0.000000 -0.000000 -0.000000 -1.000000 255 255 255 255
115.199875 92.159874 -0.000000 -0.000000 -0.000000 -1.000000 255 255 255 255
92.159889 69.119911 -0.000000 -0.000000 -0.000000 -1.000000 64 64 64 255
69.119896 69.119904 -0.000000 -0.000000 -0.000000 -1.000000 64 64 64 255
69.119888 92.159882 -0.000000 -0.000000 -0.000000 -1.000000 64 64 64 255
92.159882 92.159889 -0.000000 -0.000000 -0.000000 -1.000000 64 64 64 255
69.119896 69.119904 -0.000000 -0.000000 -0.000000 -1.000000 255 255 255 255
46.080006 69.119904 -0.000000 -0.000000 -0.000000 -1.000000 255 255 255 255
46.080006 92.159882 -0.000000 -0.000000 -0.000000 -1.000000 255 255 255 255
69.119888 92.159882 -0.000000 -0.000000 -0.000000 -1.000000 255 255 255 255
46.080006 69.119904 -0.000000 -0.000000 0.000000 -1.000000 64 64 64 255
23.040005 69.119904 -0.000000 -0.000000 0.000000 -1.000000 64 64 64 255
23.040005 92.159882 -0.000000 -0.000000 0.000000 -1.000000 64 64 64 255
46.080006 92.159882 -0.000000 -0.000000 0.000000 -1.000000 64 64 64 255
23.040005 69.119904 -0.000000 -0.000000 0.000000 -1.000000 255 255 255 255
0.000005 69.119904 0.000000 -0.000000 0.000000 -1.000000 255 255 255 255
0.000004 92.159882 0.000000 -0.000000 0.000000 -1.000000 255 255 255 255
23.040005 92.159882 -0.000000 -0.000000 0.000000 -1.000000 255 255 255 255
0.000005 69.119904 0.000000 -0.000000 0.000000 -1.000000 64 64 64 255
-23.039997 69.119904 0.000000 -0.000000 0.000000 -1.000000 64 64 64 255
-23.039997 92.159882 0.000000 -0.000000 0.000000 -1.000000 64 64 64 255
0.000004 92.159882 0.000000 -0.000000 0.000000 -1.000000 64 64 64 255
-23.039997 69.119904 0.000000 -0.000000 -0.000000 -1.000000 255 255 255 255
-46.080006 69.119904 0.000000 -0.000000 -0.000000 -1.000000 255 255 255 255
-46.080002 92.159882 0.000000 -0.000000 -0.000000 -1.000000 255 255 255 255
-23.039997 92.159882 0.000000 -0.000000 -0.000000 -1.000000 255 255 255 255
-46.080006 69.119904 0.000000 -0.000000 -0.000000 -1.000000 64 64 64 255
-69.119881 69.119904 0.000000 -0.000000 -0.000000 -1.000000 64 64 64 255
-69.119888 92.159882 0.000000 -0.000000 -0.000000 -1.000000 64 64 64 255
-46.080002 92.159882 0.000000 -0.000000 -0.000000 -1.000000 64 64 64 255
-69.119881 69.119904 0.000000 -0.000000 -0.000000 -1.000000 255 255 255 255
-92.159874 69.119896 0.000000 -0.000000 -0.000000 -1.000000 255 255 255 255
-92.159882 92.159874 0.000000 -0.000000 -0.000000 -1.000000 255 255 255 255
-69.119888 92.159882 0.000000 -0.000000 -0.000000 -1.000000 255 255 255 255
-92.159874 69.119896 0.000000 -0.000000 -0.000000 -1.000000 64 64 64 255
-115.199883 69.119896 0.000000 -0.000000 -0.000000 -1.000000 64 64 64 255
-115.199890 92.159874 0.000000 -0.000000 -0.000000 -1.000000 64 64 64 255
-92.159882 92.159874 0.000000 -0.000000 -0.000000 -1.000000 64 64 64 255
4 0 1 2 3
4 4 5 6 7
4 8 9 10 11
4 12 13 14 15
4 16 17 18 19
4 20 21 22 23
4 24 25 26 27
4 28 29 30 31
4 32 33 34 35
4 36 37 38 39
4 40 41 42 43
4 44 45 46 47
4 48 49 50 51
4 52 53 54 55
4 56 57 58 59
4 60 61 62 63
4 64 65 66 67
4 68 69 70 71
4 72 73 74 75
4 76 77 78 79
4 80 81 82 83
4 84 85 86 87
4 88 89 90 91
4 92 93 94 95
4 96 97 98 99
4 100 101 102 103
4 104 105 106 107
4 108 109 110 111
4 112 113 114 115
4 116 117 118 119
4 120 121 122 123
4 124 125 126 127
4 128 129 130 131
4 132 133 134 135
4 136 137 138 139
4 140 141 142 143
4 144 145 146 147
4 148 149 150 151
4 152 153 154 155
4 156 157 158 159
4 160 161 162 163
4 164 165 166 167
4 168 169 170 171
4 172 173 174 175
4 176 177 178 179
4 180 181 182 183
4 184 185 186 187
4 188 189 190 191
4 192 193 194 195
4 196 197 198 199
4 200 201 202 203
4 204 205 206 207
4 208 209 210 211
4 212 213 214 215
4 216 217 218 219
4 220 221 222 223
4 224 225 226 227
4 228 229 230 231
4 232 233 234 235
4 236 237 238 239
4 240 241 242 243
4 244 245 246 247
4 248 249 250 251
4 252 253 254 255
4 256 257 258 259
4 260 261 262 263
4 264 265 266 267
4 268 269 270 271
4 272 273 274 275
4 276 277 278 279
4 280 281 282 283
4 284 285 286 287
4 288 289 290 291
4 292 293 294 295
4 296 297 298 299
4 300 301 302 303
4 304 305 306 307
4 308 309 310 311
4 312 313 314 315
4 316 317 318 319
