ply
format ascii 1.0
comment Created by Blender 2.82 (sub 7) - www.blender.org, source file: ''
element vertex 320
property float x
property float y
property float z
property float nx
property float ny
property float nz
property uchar red
property uchar green
property uchar blue
property uchar alpha
element face 80
property list uchar uint vertex_indices
end_header
0.225130 189.143707 -0.000010 0.000000 0.000000 1.000000 64 64 64 255
0.225130 166.103714 -0.000008 0.000000 0.000000 1.000000 64 64 64 255
23.265139 166.103714 -0.000008 0.000000 0.000000 1.000000 64 64 64 255
23.265139 189.143707 -0.000010 0.000000 0.000000 1.000000 64 64 64 255
0.225130 166.103714 -0.000008 0.000000 0.000000 1.000000 255 255 255 255
0.225132 143.063721 -0.000006 0.000000 0.000000 1.000000 255 255 255 255
23.265141 143.063721 -0.000006 0.000000 0.000000 1.000000 255 255 255 255
23.265139 166.103714 -0.000008 0.000000 0.000000 1.000000 255 255 255 255
0.225132 143.063721 -0.000006 0.000000 0.000000 1.000000 64 64 64 255
0.225132 120.023827 -0.000004 0.000000 0.000000 1.000000 64 64 64 255
23.265141 120.023827 -0.000004 0.000000 0.000000 1.000000 64 64 64 255
23.265141 143.063721 -0.000006 0.000000 0.000000 1.000000 64 64 64 255
0.225132 120.023827 -0.000004 0.000000 0.000000 1.000000 255 255 255 255
0.225134 96.983826 -0.000002 0.000000 0.000000 1.000000 255 255 255 255
23.265142 96.983826 -0.000002 0.000000 0.000000 1.000000 255 255 255 255
23.265141 120.023827 -0.000004 0.000000 0.000000 1.000000 255 255 255 255
0.225134 96.983826 -0.000002 0.000000 0.000000 1.000000 64 64 64 255
0.225134 73.943825 -0.000000 0.000000 0.000000 1.000000 64 64 64 255
23.265142 73.943825 -0.000000 0.000000 0.000000 1.000000 64 64 64 255
23.265142 96.983826 -0.000002 0.000000 0.000000 1.000000 64 64 64 255
0.225134 73.943825 -0.000000 0.000000 0.000000 1.000000 255 255 255 255
0.225136 50.903824 0.000002 0.000000 0.000000 1.000000 255 255 255 255
23.265144 50.903824 0.000002 0.000000 0.000000 1.000000 255 255 255 255
23.265142 73.943825 -0.000000 0.000000 0.000000 1.000000 255 255 255 255
0.225136 50.903824 0.000002 0.000000 0.000000 1.000000 64 64 64 255
0.225136 27.863819 0.000004 0.000000 0.000000 1.000000 64 64 64 255
23.265144 27.863819 0.000004 0.000000 0.000000 1.000000 64 64 64 255
23.265144 50.903824 0.000002 0.000000 0.000000 1.000000 64 64 64 255
0.225136 27.863819 0.000004 0.000000 0.000000 1.000000 255 255 255 255
0.225138 4.823936 0.000006 0.000000 0.000000 1.000000 255 255 255 255
23.265146 4.823937 0.000006 0.000000 0.000000 1.000000 255 255 255 255
23.265144 27.863819 0.000004 0.000000 0.000000 1.000000 255 255 255 255
0.225138 4.823936 0.000006 0.000000 0.000000 1.000000 64 64 64 255
0.225138 -18.216057 0.000008 0.000000 0.000000 1.000000 64 64 64 255
23.265148 -18.216057 0.000008 0.000000 0.000000 1.000000 64 64 64 255
23.265146 4.823937 0.000006 0.000000 0.000000 1.000000 64 64 64 255
0.225138 -18.216057 0.000008 0.000000 0.000000 1.000000 255 255 255 255
0.225140 -41.256065 0.000010 0.000000 0.000000 1.000000 255 255 255 255
23.265148 -41.256065 0.000010 0.000000 0.000000 1.000000 255 255 255 255
23.265148 -18.216057 0.000008 0.000000 0.000000 1.000000 255 255 255 255
23.265139 189.143707 -0.000010 0.000000 0.000000 1.000000 255 255 255 255
23.265139 166.103714 -0.000008 0.000000 0.000000 1.000000 255 255 255 255
46.305016 166.103714 -0.000008 0.000000 0.000000 1.000000 255 255 255 255
46.305016 189.143707 -0.000010 0.000000 0.000000 1.000000 255 255 255 255
23.265139 166.103714 -0.000008 0.000000 0.000000 1.000000 64 64 64 255
23.265141 143.063721 -0.000006 0.000000 0.000000 1.000000 64 64 64 255
46.305019 143.063721 -0.000006 0.000000 0.000000 1.000000 64 64 64 255
46.305016 166.103714 -0.000008 0.000000 0.000000 1.000000 64 64 64 255
23.265141 143.063721 -0.000006 0.000000 0.000000 1.000000 255 255 255 255
23.265141 120.023827 -0.000004 0.000000 0.000000 1.000000 255 255 255 255
46.305019 120.023827 -0.000004 0.000000 0.000000 1.000000 255 255 255 255
46.305019 143.063721 -0.000006 0.000000 0.000000 1.000000 255 255 255 255
23.265141 120.023827 -0.000004 0.000000 0.000000 1.000000 64 64 64 255
23.265142 96.983826 -0.000002 0.000000 0.000000 1.000000 64 64 64 255
46.305023 96.983826 -0.000002 0.000000 0.000000 1.000000 64 64 64 255
46.305019 120.023827 -0.000004 0.000000 0.000000 1.000000 64 64 64 255
23.265142 96.983826 -0.000002 0.000000 0.000000 1.000000 255 255 255 255
23.265142 73.943825 -0.000000 0.000000 0.000000 1.000000 255 255 255 255
46.305023 73.943825 -0.000000 0.000000 0.000000 1.000000 255 255 255 255
46.305023 96.983826 -0.000002 0.000000 0.000000 1.000000 255 255 255 255
23.265142 73.943825 -0.000000 0.000000 0.000000 1.000000 64 64 64 255
23.265144 50.903824 0.000002 0.000000 0.000000 1.000000 64 64 64 255
46.305023 50.903824 0.000002 0.000000 0.000000 1.000000 64 64 64 255
46.305023 73.943825 -0.000000 0.000000 0.000000 1.000000 64 64 64 255
23.265144 50.903824 0.000002 -0.000000 0.000000 1.000000 255 255 255 255
23.265144 27.863819 0.000004 -0.000000 0.000000 1.000000 255 255 255 255
46.305023 27.863821 0.000004 -0.000000 0.000000 1.000000 255 255 255 255
46.305023 50.903824 0.000002 -0.000000 0.000000 1.000000 255 255 255 255
23.265144 27.863819 0.000004 -0.000000 0.000000 1.000000 64 64 64 255
23.265146 4.823937 0.000006 -0.000000 0.000000 1.000000 64 64 64 255
46.305023 4.823938 0.000006 -0.000000 0.000000 1.000000 64 64 64 255
46.305023 27.863821 0.000004 -0.000000 0.000000 1.000000 64 64 64 255
23.265146 4.823937 0.000006 -0.000000 0.000000 1.000000 255 255 255 255
23.265148 -18.216057 0.000008 -0.000000 0.000000 1.000000 255 255 255 255
46.305023 -18.216055 0.000008 -0.000000 0.000000 1.000000 255 255 255 255
46.305023 4.823938 0.000006 -0.000000 0.000000 1.000000 255 255 255 255
23.265148 -18.216057 0.000008 -0.000000 0.000000 1.000000 64 64 64 255
23.265148 -41.256065 0.000010 -0.000000 0.000000 1.000000 64 64 64 255
46.305027 -41.256065 0.000010 -0.000000 0.000000 1.000000 64 64 64 255
46.305023 -18.216055 0.000008 -0.000000 0.000000 1.000000 64 64 64 255
46.305016 189.143707 -0.000010 0.000000 0.000000 1.000000 64 64 64 255
46.305016 166.103714 -0.000008 0.000000 0.000000 1.000000 64 64 64 255
69.345032 166.103714 -0.000008 0.000000 0.000000 1.000000 64 64 64 255
69.345032 189.143707 -0.000010 0.000000 0.000000 1.000000 64 64 64 255
46.305016 166.103714 -0.000008 0.000000 0.000000 1.000000 255 255 255 255
46.305019 143.063721 -0.000006 0.000000 0.000000 1.000000 255 255 255 255
69.345032 143.063721 -0.000006 0.000000 0.000000 1.000000 255 255 255 255
69.345032 166.103714 -0.000008 0.000000 0.000000 1.000000 255 255 255 255
46.305019 143.063721 -0.000006 0.000000 0.000000 1.000000 64 64 64 255
46.305019 120.023827 -0.000004 0.000000 0.000000 1.000000 64 64 64 255
69.345039 120.023827 -0.000004 0.000000 0.000000 1.000000 64 64 64 255
69.345032 143.063721 -0.000006 0.000000 0.000000 1.000000 64 64 64 255
46.305019 120.023827 -0.000004 0.000000 0.000000 1.000000 255 255 255 255
46.305023 96.983826 -0.000002 0.000000 0.000000 1.000000 255 255 255 255
69.345039 96.983826 -0.000002 0.000000 0.000000 1.000000 255 255 255 255
69.345039 120.023827 -0.000004 0.000000 0.000000 1.000000 255 255 255 255
46.305023 96.983826 -0.000002 0.000000 0.000000 1.000000 64 64 64 255
46.305023 73.943825 -0.000000 0.000000 0.000000 1.000000 64 64 64 255
69.345039 73.943825 -0.000000 0.000000 0.000000 1.000000 64 64 64 255
69.345039 96.983826 -0.000002 0.000000 0.000000 1.000000 64 64 64 255
46.305023 73.943825 -0.000000 -0.000000 0.000000 1.000000 255 255 255 255
46.305023 50.903824 0.000002 -0.000000 0.000000 1.000000 255 255 255 255
69.345039 50.903828 0.000002 -0.000000 0.000000 1.000000 255 255 255 255
69.345039 73.943825 -0.000000 -0.000000 0.000000 1.000000 255 255 255 255
46.305023 50.903824 0.000002 -0.000000 0.000000 1.000000 64 64 64 255
46.305023 27.863821 0.000004 -0.000000 0.000000 1.000000 64 64 64 255
69.345039 27.863821 0.000004 -0.000000 0.000000 1.000000 64 64 64 255
69.345039 50.903828 0.000002 -0.000000 0.000000 1.000000 64 64 64 255
46.305023 27.863821 0.000004 0.000000 0.000000 1.000000 255 255 255 255
46.305023 4.823938 0.000006 0.000000 0.000000 1.000000 255 255 255 255
69.345039 4.823939 0.000006 0.000000 0.000000 1.000000 255 255 255 255
69.345039 27.863821 0.000004 0.000000 0.000000 1.000000 255 255 255 255
46.305023 4.823938 0.000006 0.000000 0.000000 1.000000 64 64 64 255
46.305023 -18.216055 0.000008 0.000000 0.000000 1.000000 64 64 64 255
69.345039 -18.216055 0.000008 0.000000 0.000000 1.000000 64 64 64 255
69.345039 4.823939 0.000006 0.000000 0.000000 1.000000 64 64 64 255
46.305023 -18.216055 0.000008 -0.000000 0.000000 1.000000 255 255 255 255
46.305027 -41.256065 0.000010 -0.000000 0.000000 1.000000 255 255 255 255
69.345039 -41.256062 0.000010 -0.000000 0.000000 1.000000 255 255 255 255
69.345039 -18.216055 0.000008 -0.000000 0.000000 1.000000 255 255 255 255
69.345032 189.143707 -0.000010 0.000000 0.000000 1.000000 255 255 255 255
69.345032 166.103714 -0.000008 0.000000 0.000000 1.000000 255 255 255 255
92.385033 166.103714 -0.000008 0.000000 0.000000 1.000000 255 255 255 255
92.385033 189.143707 -0.000010 0.000000 0.000000 1.000000 255 255 255 255
69.345032 166.103714 -0.000008 0.000000 0.000000 1.000000 64 64 64 255
69.345032 143.063721 -0.000006 0.000000 0.000000 1.000000 64 64 64 255
92.385033 143.063721 -0.000006 0.000000 0.000000 1.000000 64 64 64 255
92.385033 166.103714 -0.000008 0.000000 0.000000 1.000000 64 64 64 255
69.345032 143.063721 -0.000006 0.000000 0.000000 1.000000 255 255 255 255
69.345039 120.023827 -0.000004 0.000000 0.000000 1.000000 255 255 255 255
92.385033 120.023827 -0.000004 0.000000 0.000000 1.000000 255 255 255 255
92.385033 143.063721 -0.000006 0.000000 0.000000 1.000000 255 255 255 255
69.345039 120.023827 -0.000004 0.000000 0.000000 1.000000 64 64 64 255
69.345039 96.983826 -0.000002 0.000000 0.000000 1.000000 64 64 64 255
92.385033 96.983826 -0.000002 0.000000 0.000000 1.000000 64 64 64 255
92.385033 120.023827 -0.000004 0.000000 0.000000 1.000000 64 64 64 255
69.345039 96.983826 -0.000002 0.000000 0.000000 1.000000 255 255 255 255
69.345039 73.943825 -0.000000 0.000000 0.000000 1.000000 255 255 255 255
92.385040 73.943825 -0.000000 0.000000 0.000000 1.000000 255 255 255 255
92.385033 96.983826 -0.000002 0.000000 0.000000 1.000000 255 255 255 255
69.345039 73.943825 -0.000000 0.000000 0.000000 1.000000 64 64 64 255
69.345039 50.903828 0.000002 0.000000 0.000000 1.000000 64 64 64 255
92.385040 50.903828 0.000002 0.000000 0.000000 1.000000 64 64 64 255
92.385040 73.943825 -0.000000 0.000000 0.000000 1.000000 64 64 64 255
69.345039 50.903828 0.000002 -0.000000 0.000000 1.000000 255 255 255 255
69.345039 27.863821 0.000004 -0.000000 0.000000 1.000000 255 255 255 255
92.385040 27.863823 0.000004 -0.000000 0.000000 1.000000 255 255 255 255
92.385040 50.903828 0.000002 -0.000000 0.000000 1.000000 255 255 255 255
69.345039 27.863821 0.000004 -0.000000 0.000000 1.000000 64 64 64 255
69.345039 4.823939 0.000006 -0.000000 0.000000 1.000000 64 64 64 255
92.385040 4.823940 0.000006 -0.000000 0.000000 1.000000 64 64 64 255
92.385040 27.863823 0.000004 -0.000000 0.000000 1.000000 64 64 64 255
69.345039 4.823939 0.000006 -0.000000 0.000000 1.000000 255 255 255 255
69.345039 -18.216055 0.000008 -0.000000 0.000000 1.000000 255 255 255 255
92.385040 -18.216053 0.000008 -0.000000 0.000000 1.000000 255 255 255 255
92.385040 4.823940 0.000006 -0.000000 0.000000 1.000000 255 255 255 255
69.345039 -18.216055 0.000008 -0.000000 0.000000 1.000000 64 64 64 255
69.345039 -41.256062 0.000010 -0.000000 0.000000 1.000000 64 64 64 255
92.385040 -41.256062 0.000010 -0.000000 0.000000 1.000000 64 64 64 255
92.385040 -18.216053 0.000008 -0.000000 0.000000 1.000000 64 64 64 255
92.385033 189.143707 -0.000010 0.000000 0.000000 1.000000 64 64 64 255
92.385033 166.103714 -0.000008 0.000000 0.000000 1.000000 64 64 64 255
115.425034 166.103714 -0.000008 0.000000 0.000000 1.000000 64 64 64 255
115.425034 189.143707 -0.000010 0.000000 0.000000 1.000000 64 64 64 255
92.385033 166.103714 -0.000008 0.000000 0.000000 1.000000 255 255 255 255
92.385033 143.063721 -0.000006 0.000000 0.000000 1.000000 255 255 255 255
115.425034 143.063721 -0.000006 0.000000 0.000000 1.000000 255 255 255 255
115.425034 166.103714 -0.000008 0.000000 0.000000 1.000000 255 255 255 255
92.385033 143.063721 -0.000006 -0.000000 0.000000 1.000000 64 64 64 255
92.385033 120.023827 -0.000004 -0.000000 0.000000 1.000000 64 64 64 255
115.425034 120.023834 -0.000004 -0.000000 0.000000 1.000000 64 64 64 255
115.425034 143.063721 -0.000006 -0.000000 0.000000 1.000000 64 64 64 255
92.385033 120.023827 -0.000004 -0.000000 0.000000 1.000000 255 255 255 255
92.385033 96.983826 -0.000002 -0.000000 0.000000 1.000000 255 255 255 255
115.425034 96.983833 -0.000002 -0.000000 0.000000 1.000000 255 255 255 255
115.425034 120.023834 -0.000004 -0.000000 0.000000 1.000000 255 255 255 255
92.385033 96.983826 -0.000002 -0.000000 0.000000 1.000000 64 64 64 255
92.385040 73.943825 -0.000000 -0.000000 0.000000 1.000000 64 64 64 255
115.425041 73.943832 -0.000000 -0.000000 0.000000 1.000000 64 64 64 255
115.425034 96.983833 -0.000002 -0.000000 0.000000 1.000000 64 64 64 255
92.385040 73.943825 -0.000000 -0.000000 0.000000 1.000000 255 255 255 255
92.385040 50.903828 0.000002 -0.000000 0.000000 1.000000 255 255 255 255
115.425041 50.903828 0.000002 -0.000000 0.000000 1.000000 255 255 255 255
115.425041 73.943832 -0.000000 -0.000000 0.000000 1.000000 255 255 255 255
92.385040 50.903828 0.000002 0.000000 0.000000 1.000000 64 64 64 255
92.385040 27.863823 0.000004 0.000000 0.000000 1.000000 64 64 64 255
115.425041 27.863823 0.000004 0.000000 0.000000 1.000000 64 64 64 255
115.425041 50.903828 0.000002 0.000000 0.000000 1.000000 64 64 64 255
92.385040 27.863823 0.000004 0.000000 0.000000 1.000000 255 255 255 255
92.385040 4.823940 0.000006 0.000000 0.000000 1.000000 255 255 255 255
115.425041 4.823941 0.000006 0.000000 0.000000 1.000000 255 255 255 255
115.425041 27.863823 0.000004 0.000000 0.000000 1.000000 255 255 255 255
92.385040 4.823940 0.000006 0.000000 0.000000 1.000000 64 64 64 255
92.385040 -18.216053 0.000008 0.000000 0.000000 1.000000 64 64 64 255
115.425041 -18.216053 0.000008 0.000000 0.000000 1.000000 64 64 64 255
115.425041 4.823941 0.000006 0.000000 0.000000 1.000000 64 64 64 255
92.385040 -18.216053 0.000008 0.000000 0.000000 1.000000 255 255 255 255
92.385040 -41.256062 0.000010 0.000000 0.000000 1.000000 255 255 255 255
115.425041 -41.256062 0.000010 0.000000 0.000000 1.000000 255 255 255 255
115.425041 -18.216053 0.000008 0.000000 0.000000 1.000000 255 255 255 255
115.425034 189.143707 -0.000010 0.000000 0.000000 1.000000 255 255 255 255
115.425034 166.103714 -0.000008 0.000000 0.000000 1.000000 255 255 255 255
138.465042 166.103714 -0.000008 0.000000 0.000000 1.000000 255 255 255 255
138.465042 189.143707 -0.000010 0.000000 0.000000 1.000000 255 255 255 255
115.425034 166.103714 -0.000008 0.000000 0.000000 1.000000 64 64 64 255
115.425034 143.063721 -0.000006 0.000000 0.000000 1.000000 64 64 64 255
138.465042 143.063721 -0.000006 0.000000 0.000000 1.000000 64 64 64 255
138.465042 166.103714 -0.000008 0.000000 0.000000 1.000000 64 64 64 255
115.425034 143.063721 -0.000006 0.000000 0.000000 1.000000 255 255 255 255
115.425034 120.023834 -0.000004 0.000000 0.000000 1.000000 255 255 255 255
138.465042 120.023834 -0.000004 0.000000 0.000000 1.000000 255 255 255 255
138.465042 143.063721 -0.000006 0.000000 0.000000 1.000000 255 255 255 255
115.425034 120.023834 -0.000004 0.000000 0.000000 1.000000 64 64 64 255
115.425034 96.983833 -0.000002 0.000000 0.000000 1.000000 64 64 64 255
138.465042 96.983833 -0.000002 0.000000 0.000000 1.000000 64 64 64 255
138.465042 120.023834 -0.000004 0.000000 0.000000 1.000000 64 64 64 255
115.425034 96.983833 -0.000002 0.000000 0.000000 1.000000 255 255 255 255
115.425041 73.943832 -0.000000 0.000000 0.000000 1.000000 255 255 255 255
138.465042 73.943832 -0.000000 0.000000 0.000000 1.000000 255 255 255 255
138.465042 96.983833 -0.000002 0.000000 0.000000 1.000000 255 255 255 255
115.425041 73.943832 -0.000000 0.000000 0.000000 1.000000 64 64 64 255
115.425041 50.903828 0.000002 0.000000 0.000000 1.000000 64 64 64 255
138.465042 50.903828 0.000002 0.000000 0.000000 1.000000 64 64 64 255
138.465042 73.943832 -0.000000 0.000000 0.000000 1.000000 64 64 64 255
115.425041 50.903828 0.000002 -0.000000 0.000000 1.000000 255 255 255 255
115.425041 27.863823 0.000004 -0.000000 0.000000 1.000000 255 255 255 255
138.465042 27.863825 0.000004 -0.000000 0.000000 1.000000 255 255 255 255
138.465042 50.903828 0.000002 -0.000000 0.000000 1.000000 255 255 255 255
115.425041 27.863823 0.000004 -0.000000 0.000000 1.000000 64 64 64 255
115.425041 4.823941 0.000006 -0.000000 0.000000 1.000000 64 64 64 255
138.465042 4.823942 0.000006 -0.000000 0.000000 1.000000 64 64 64 255
138.465042 27.863825 0.000004 -0.000000 0.000000 1.000000 64 64 64 255
115.425041 4.823941 0.000006 -0.000000 0.000000 1.000000 255 255 255 255
115.425041 -18.216053 0.000008 -0.000000 0.000000 1.000000 255 255 255 255
138.465042 -18.216051 0.000008 -0.000000 0.000000 1.000000 255 255 255 255
138.465042 4.823942 0.000006 -0.000000 0.000000 1.000000 255 255 255 255
115.425041 -18.216053 0.000008 -0.000000 0.000000 1.000000 64 64 64 255
115.425041 -41.256062 0.000010 -0.000000 0.000000 1.000000 64 64 64 255
138.465042 -41.256062 0.000010 -0.000000 0.000000 1.000000 64 64 64 255
138.465042 -18.216051 0.000008 -0.000000 0.000000 1.000000 64 64 64 255
138.465042 189.143707 -0.000010 0.000000 0.000000 1.000000 64 64 64 255
138.465042 166.103714 -0.000008 0.000000 0.000000 1.000000 64 64 64 255
161.504944 166.103714 -0.000008 0.000000 0.000000 1.000000 64 64 64 255
161.504929 189.143707 -0.000010 0.000000 0.000000 1.000000 64 64 64 255
138.465042 166.103714 -0.000008 0.000000 0.000000 1.000000 255 255 255 255
138.465042 143.063721 -0.000006 0.000000 0.000000 1.000000 255 255 255 255
161.504944 143.063721 -0.000006 0.000000 0.000000 1.000000 255 255 255 255
161.504944 166.103714 -0.000008 0.000000 0.000000 1.000000 255 255 255 255
138.465042 143.063721 -0.000006 0.000000 0.000000 1.000000 64 64 64 255
138.465042 120.023834 -0.000004 0.000000 0.000000 1.000000 64 64 64 255
161.504944 120.023834 -0.000004 0.000000 0.000000 1.000000 64 64 64 255
161.504944 143.063721 -0.000006 0.000000 0.000000 1.000000 64 64 64 255
138.465042 120.023834 -0.000004 0.000000 0.000000 1.000000 255 255 255 255
138.465042 96.983833 -0.000002 0.000000 0.000000 1.000000 255 255 255 255
161.504944 96.983833 -0.000002 0.000000 0.000000 1.000000 255 255 255 255
161.504944 120.023834 -0.000004 0.000000 0.000000 1.000000 255 255 255 255
138.465042 96.983833 -0.000002 0.000000 0.000000 1.000000 64 64 64 255
138.465042 73.943832 -0.000000 0.000000 0.000000 1.000000 64 64 64 255
161.504944 73.943832 -0.000000 0.000000 0.000000 1.000000 64 64 64 255
161.504944 96.983833 -0.000002 0.000000 0.000000 1.000000 64 64 64 255
138.465042 73.943832 -0.000000 -0.000000 0.000000 1.000000 255 255 255 255
138.465042 50.903828 0.000002 -0.000000 0.000000 1.000000 255 255 255 255
161.504944 50.903831 0.000002 -0.000000 0.000000 1.000000 255 255 255 255
161.504944 73.943832 -0.000000 -0.000000 0.000000 1.000000 255 255 255 255
138.465042 50.903828 0.000002 -0.000000 0.000000 1.000000 64 64 64 255
138.465042 27.863825 0.000004 -0.000000 0.000000 1.000000 64 64 64 255
161.504944 27.863825 0.000004 -0.000000 0.000000 1.000000 64 64 64 255
161.504944 50.903831 0.000002 -0.000000 0.000000 1.000000 64 64 64 255
138.465042 27.863825 0.000004 0.000000 0.000000 1.000000 255 255 255 255
138.465042 4.823942 0.000006 0.000000 0.000000 1.000000 255 255 255 255
161.504944 4.823943 0.000006 0.000000 0.000000 1.000000 255 255 255 255
161.504944 27.863825 0.000004 0.000000 0.000000 1.000000 255 255 255 255
138.465042 4.823942 0.000006 0.000000 0.000000 1.000000 64 64 64 255
138.465042 -18.216051 0.000008 0.000000 0.000000 1.000000 64 64 64 255
161.504944 -18.216051 0.000008 0.000000 0.000000 1.000000 64 64 64 255
161.504944 4.823943 0.000006 0.000000 0.000000 1.000000 64 64 64 255
138.465042 -18.216051 0.000008 -0.000000 0.000000 1.000000 255 255 255 255
138.465042 -41.256062 0.000010 -0.000000 0.000000 1.000000 255 255 255 255
161.504944 -41.256058 0.000010 -0.000000 0.000000 1.000000 255 255 255 255
161.504944 -18.216051 0.000008 -0.000000 0.000000 1.000000 255 255 255 255
161.504929 189.143707 -0.000010 0.000000 0.000000 1.000000 255 255 255 255
161.504944 166.103714 -0.000008 0.000000 0.000000 1.000000 255 255 255 255
184.544922 166.103714 -0.000008 0.000000 0.000000 1.000000 255 255 255 255
184.544907 189.143707 -0.000010 0.000000 0.000000 1.000000 255 255 255 255
161.504944 166.103714 -0.000008 0.000000 0.000000 1.000000 64 64 64 255
161.504944 143.063721 -0.000006 0.000000 0.000000 1.000000 64 64 64 255
184.544922 143.063721 -0.000006 0.000000 0.000000 1.000000 64 64 64 255
184.544922 166.103714 -0.000008 0.000000 0.000000 1.000000 64 64 64 255
161.504944 143.063721 -0.000006 0.000000 0.000000 1.000000 255 255 255 255
161.504944 120.023834 -0.000004 0.000000 0.000000 1.000000 255 255 255 255
184.544922 120.023834 -0.000004 0.000000 0.000000 1.000000 255 255 255 255
184.544922 143.063721 -0.000006 0.000000 0.000000 1.000000 255 255 255 255
161.504944 120.023834 -0.000004 0.000000 0.000000 1.000000 64 64 64 255
161.504944 96.983833 -0.000002 0.000000 0.000000 1.000000 64 64 64 255
184.544922 96.983833 -0.000002 0.000000 0.000000 1.000000 64 64 64 255
184.544922 120.023834 -0.000004 0.000000 0.000000 1.000000 64 64 64 255
161.504944 96.983833 -0.000002 0.000000 0.000000 1.000000 255 255 255 255
161.504944 73.943832 -0.000000 0.000000 0.000000 1.000000 255 255 255 255
184.544922 73.943832 -0.000000 0.000000 0.000000 1.000000 255 255 255 255
184.544922 96.983833 -0.000002 0.000000 0.000000 1.000000 255 255 255 255
161.504944 73.943832 -0.000000 0.000000 0.000000 1.000000 64 64 64 255
161.504944 50.903831 0.000002 0.000000 0.000000 1.000000 64 64 64 255
184.544922 50.903831 0.000002 0.000000 0.000000 1.000000 64 64 64 255
184.544922 73.943832 -0.000000 0.000000 0.000000 1.000000 64 64 64 255
161.504944 50.903831 0.000002 -0.000000 0.000000 1.000000 255 255 255 255
161.504944 27.863825 0.000004 -0.000000 0.000000 1.000000 255 255 255 255
184.544922 27.863827 0.000004 -0.000000 0.000000 1.000000 255 255 255 255
184.544922 50.903831 0.000002 -0.000000 0.000000 1.000000 255 255 255 255
161.504944 27.863825 0.000004 -0.000000 0.000000 1.000000 64 64 64 255
161.504944 4.823943 0.000006 -0.000000 0.000000 1.000000 64 64 64 255
184.544922 4.823944 0.000006 -0.000000 0.000000 1.000000 64 64 64 255
184.544922 27.863827 0.000004 -0.000000 0.000000 1.000000 64 64 64 255
161.504944 4.823943 0.000006 -0.000000 0.000000 1.000000 255 255 255 255
161.504944 -18.216051 0.000008 -0.000000 0.000000 1.000000 255 255 255 255
184.544922 -18.216049 0.000008 -0.000000 0.000000 1.000000 255 255 255 255
184.544922 4.823944 0.000006 -0.000000 0.000000 1.000000 255 255 255 255
161.504944 -18.216051 0.000008 -0.000000 0.000000 1.000000 64 64 64 255
161.504944 -41.256058 0.000010 -0.000000 0.000000 1.000000 64 64 64 255
184.544922 -41.256058 0.000010 -0.000000 0.000000 1.000000 64 64 64 255
184.544922 -18.216049 0.000008 -0.000000 0.000000 1.000000 64 64 64 255
4 0 1 2 3
4 4 5 6 7
4 8 9 10 11
4 12 13 14 15
4 16 17 18 19
4 20 21 22 23
4 24 25 26 27
4 28 29 30 31
4 32 33 34 35
4 36 37 38 39
4 40 41 42 43
4 44 45 46 47
4 48 49 50 51
4 52 53 54 55
4 56 57 58 59
4 60 61 62 63
4 64 65 66 67
4 68 69 70 71
4 72 73 74 75
4 76 77 78 79
4 80 81 82 83
4 84 85 86 87
4 88 89 90 91
4 92 93 94 95
4 96 97 98 99
4 100 101 102 103
4 104 105 106 107
4 108 109 110 111
4 112 113 114 115
4 116 117 118 119
4 120 121 122 123
4 124 125 126 127
4 128 129 130 131
4 132 133 134 135
4 136 137 138 139
4 140 141 142 143
4 144 145 146 147
4 148 149 150 151
4 152 153 154 155
4 156 157 158 159
4 160 161 162 163
4 164 165 166 167
4 168 169 170 171
4 172 173 174 175
4 176 177 178 179
4 180 181 182 183
4 184 185 186 187
4 188 189 190 191
4 192 193 194 195
4 196 197 198 199
4 200 201 202 203
4 204 205 206 207
4 208 209 210 211
4 212 213 214 215
4 216 217 218 219
4 220 221 222 223
4 224 225 226 227
4 228 229 230 231
4 232 233 234 235
4 236 237 238 239
4 240 241 242 243
4 244 245 246 247
4 248 249 250 251
4 252 253 254 255
4 256 257 258 259
4 260 261 262 263
4 264 265 266 267
4 268 269 270 271
4 272 273 274 275
4 276 277 278 279
4 280 281 282 283
4 284 285 286 287
4 288 289 290 291
4 292 293 294 295
4 296 297 298 299
4 300 301 302 303
4 304 305 306 307
4 308 309 310 311
4 312 313 314 315
4 316 317 318 319
