0
SECTION
2
HEADER
9
$INSUNITS
70
1
9
$ACADVER
1
AC1014
9
$HANDSEED
5
FFFF
0
ENDSEC
0
SECTION
2
TABLES
0
TABLE
2
VPORT
5
8
100
AcDbSymbolTable
0
ENDTAB
0
TABLE
2
LTYPE
5
5
100
AcDbSymbolTable
0
LTYPE
5
14
100
AcDbSymbolTableRecord
100
AcDbLinetypeTableRecord
2
BYBLOCK
70
0
0
LTYPE
5
15
100
AcDbSymbolTableRecord
100
AcDbLinetypeTableRecord
2
BYLAYER
70
0
0
ENDTAB
0
TABLE
2
LAYER
5
2
100
AcDbSymbolTable
70
2
0
LAYER
5
50
100
AcDbSymbolTableRecord
100
AcDbLayerTableRecord
2
0
70
0
6
CONTINUOUS
0
ENDTAB
0
TABLE
2
STYLE
5
3
100
AcDbSymbolTable
70
1
0
STYLE
5
11
100
AcDbSymbolTableRecord
100
AcDbTextStyleTableRecord
2
STANDARD
70
0
0
ENDTAB
0
TABLE
2
VIEW
5
6
100
AcDbSymbolTable
70
0
0
ENDTAB
0
TABLE
2
UCS
5
7
100
AcDbSymbolTable
70
0
0
ENDTAB
0
TABLE
2
APPID
5
9
100
AcDbSymbolTable
70
2
0
APPID
5
12
100
AcDbSymbolTableRecord
100
AcDbRegAppTableRecord
2
ACAD
70
0
0
ENDTAB
0
TABLE
2
DIMSTYLE
5
A
100
AcDbSymbolTable
70
1
0
ENDTAB
0
TABLE
2
BLOCK_RECORD
5
1
100
AcDbSymbolTable
70
1
0
BLOCK_RECORD
5
1F
100
AcDbSymbolTableRecord
100
AcDbBlockTableRecord
2
*MODEL_SPACE
0
BLOCK_RECORD
5
1B
100
AcDbSymbolTableRecord
100
AcDbBlockTableRecord
2
*PAPER_SPACE
0
ENDTAB
0
ENDSEC
0
SECTION
2
BLOCKS
0
BLOCK
5
20
100
AcDbEntity
100
AcDbBlockBegin
2
*MODEL_SPACE
0
ENDBLK
5
21
100
AcDbEntity
100
AcDbBlockEnd
0
BLOCK
5
1C
100
AcDbEntity
100
AcDbBlockBegin
2
*PAPER_SPACE
0
ENDBLK
5
1D
100
AcDbEntity
100
AcDbBlockEnd
0
ENDSEC
0
SECTION
2
ENTITIES
0
CIRCLE
5
100
100
AcDbEntity
8
0
100
AcDbCircle
10
-2.2499999999999996
20
-23.606299212598422
30
0
40
0.10826771653543307
210
0
220
-0
230
1
0
LWPOLYLINE
5
101
100
AcDbEntity
8
0
100
AcDbPolyline
90
16
70
1
43
0.0
10
-0.82677165354330562
20
-23.899999999999999
42
-0.4142135623731007
10
-0.92677165354330671
20
-24
10
-11.899999999999999
20
-24
42
-0.4142135623731073
10
-12
20
-23.899999999999995
10
-12
20
-0.10000000000000002
42
-0.41421356237308599
10
-11.899999999999999
20
0
10
-0.92677165354330704
20
1.3112870369588462e-16
42
-0.41421356237309748
10
-0.82677165354330684
20
-0.10000000000000052
10
-0.82677165354330706
20
-0.72677165354330708
42
0.41421356237309453
10
-0.72677165354330708
20
-0.82677165354330762
10
-0.10000000000000021
20
-0.82677165354330651
42
-0.41421356237309626
10
0
20
-0.92677165354330671
10
1.1364487653643334e-15
20
-23.073228346456688
42
-0.41421356237310042
10
-0.099999999999999811
20
-23.173228346456689
10
-0.72677165354330708
20
-23.173228346456689
42
0.41421356237309503
10
-0.82677165354330684
20
-23.273228346456687
0
CIRCLE
5
102
100
AcDbEntity
8
0
100
AcDbCircle
10
-9.0551181102362275
20
-7.6496062992125964
30
0
40
0.098425196850393692
210
0
220
-0
230
1
0
CIRCLE
5
103
100
AcDbEntity
8
0
100
AcDbCircle
10
-9.0551181102362275
20
-1.3503937007873998
30
0
40
0.098425196850393692
210
0
220
-0
230
1
0
CIRCLE
5
104
100
AcDbEntity
8
0
100
AcDbCircle
10
-1.9999999999999998
20
-21.999999999999996
30
0
40
0.12795275590551181
210
0
220
-0
230
1
0
CIRCLE
5
105
100
AcDbEntity
8
0
100
AcDbCircle
10
-1.9999999999999998
20
-19.999999999999996
30
0
40
0.12795275590551181
210
0
220
-0
230
1
0
CIRCLE
5
106
100
AcDbEntity
8
0
100
AcDbCircle
10
-6
20
-23.606299212598422
30
0
40
0.10826771653543307
210
0
220
-0
230
1
0
CIRCLE
5
107
100
AcDbEntity
8
0
100
AcDbCircle
10
-11.606299212598424
20
-23.606299212598422
30
0
40
0.10826771653543307
210
0
220
-0
230
1
0
CIRCLE
5
108
100
AcDbEntity
8
0
100
AcDbCircle
10
-0.39370078740157477
20
-17.803149606299211
30
0
40
0.10826771653543307
210
0
220
-0
230
1
0
CIRCLE
5
109
100
AcDbEntity
8
0
100
AcDbCircle
10
-11.606299212598424
20
-17.803149606299211
30
0
40
0.10826771653543307
210
0
220
-0
230
1
0
CIRCLE
5
110
100
AcDbEntity
8
0
100
AcDbCircle
10
-0.39370078740157477
20
-12
30
0
40
0.10826771653543307
210
0
220
-0
230
1
0
CIRCLE
5
111
100
AcDbEntity
8
0
100
AcDbCircle
10
-11.606299212598424
20
-12
30
0
40
0.10826771653543307
210
0
220
-0
230
1
0
CIRCLE
5
112
100
AcDbEntity
8
0
100
AcDbCircle
10
-0.39370078740157477
20
-6.1968503937007871
30
0
40
0.10826771653543307
210
0
220
-0
230
1
0
CIRCLE
5
113
100
AcDbEntity
8
0
100
AcDbCircle
10
-11.606299212598424
20
-6.9468503937007871
30
0
40
0.10826771653543307
210
0
220
-0
230
1
0
CIRCLE
5
114
100
AcDbEntity
8
0
100
AcDbCircle
10
-6
20
-0.39370078740157477
30
0
40
0.10826771653543307
210
0
220
-0
230
1
0
CIRCLE
5
115
100
AcDbEntity
8
0
100
AcDbCircle
10
-11.606299212598424
20
-0.39370078740157477
30
0
40
0.10826771653543307
210
0
220
-0
230
1
0
ENDSEC
0
SECTION
2
OBJECTS
0
DICTIONARY
5
C
100
AcDbDictionary
3
ACAD_GROUP
350
D
3
ACAD_MLINESTYLE
350
17
0
DICTIONARY
5
D
100
AcDbDictionary
0
DICTIONARY
5
1A
330
C
100
AcDbDictionary
0
DICTIONARY
5
17
100
AcDbDictionary
0
ENDSEC
0
EOF
