0
SECTION
2
HEADER
9
$INSUNITS
70
1
9
$ACADVER
1
AC1014
9
$HANDSEED
5
FFFF
0
ENDSEC
0
SECTION
2
TABLES
0
TABLE
2
VPORT
5
8
100
AcDbSymbolTable
0
ENDTAB
0
TABLE
2
LTYPE
5
5
100
AcDbSymbolTable
0
LTYPE
5
14
100
AcDbSymbolTableRecord
100
AcDbLinetypeTableRecord
2
BYBLOCK
70
0
0
LTYPE
5
15
100
AcDbSymbolTableRecord
100
AcDbLinetypeTableRecord
2
BYLAYER
70
0
0
ENDTAB
0
TABLE
2
LAYER
5
2
100
AcDbSymbolTable
70
2
0
LAYER
5
50
100
AcDbSymbolTableRecord
100
AcDbLayerTableRecord
2
0
70
0
6
CONTINUOUS
0
ENDTAB
0
TABLE
2
STYLE
5
3
100
AcDbSymbolTable
70
1
0
STYLE
5
11
100
AcDbSymbolTableRecord
100
AcDbTextStyleTableRecord
2
STANDARD
70
0
0
ENDTAB
0
TABLE
2
VIEW
5
6
100
AcDbSymbolTable
70
0
0
ENDTAB
0
TABLE
2
UCS
5
7
100
AcDbSymbolTable
70
0
0
ENDTAB
0
TABLE
2
APPID
5
9
100
AcDbSymbolTable
70
2
0
APPID
5
12
100
AcDbSymbolTableRecord
100
AcDbRegAppTableRecord
2
ACAD
70
0
0
ENDTAB
0
TABLE
2
DIMSTYLE
5
A
100
AcDbSymbolTable
70
1
0
ENDTAB
0
TABLE
2
BLOCK_RECORD
5
1
100
AcDbSymbolTable
70
1
0
BLOCK_RECORD
5
1F
100
AcDbSymbolTableRecord
100
AcDbBlockTableRecord
2
*MODEL_SPACE
0
BLOCK_RECORD
5
1B
100
AcDbSymbolTableRecord
100
AcDbBlockTableRecord
2
*PAPER_SPACE
0
ENDTAB
0
ENDSEC
0
SECTION
2
BLOCKS
0
BLOCK
5
20
100
AcDbEntity
100
AcDbBlockBegin
2
*MODEL_SPACE
0
ENDBLK
5
21
100
AcDbEntity
100
AcDbBlockEnd
0
BLOCK
5
1C
100
AcDbEntity
100
AcDbBlockBegin
2
*PAPER_SPACE
0
ENDBLK
5
1D
100
AcDbEntity
100
AcDbBlockEnd
0
ENDSEC
0
SECTION
2
ENTITIES
0
LWPOLYLINE
5
100
100
AcDbEntity
8
0
100
AcDbPolyline
90
16
70
1
43
0.0
10
-38.837007874015747
20
-23.999999999999996
42
-0.41421356237307866
10
-38.937007874015748
20
-23.899999999999999
10
-38.937007874015748
20
-23.27322834645669
42
0.41421356237309503
10
-39.03700787401575
20
-23.173228346456689
10
-39.663779527559051
20
-23.173228346456693
42
-0.41421356237309503
10
-39.763779527559052
20
-23.073228346456691
10
-39.763779527559045
20
-0.92677165354330704
42
-0.41421356237306689
10
-39.663779527559051
20
-0.82677165354330684
10
-39.03700787401575
20
-0.82677165354330706
42
0.41421356237309503
10
-38.937007874015748
20
-0.72677165354330708
10
-38.937007874015748
20
-0.099999999999999867
42
-0.41421356237306711
10
-38.837007874015754
20
0
10
-27.863779527559053
20
1.1364487653643334e-15
42
-0.41421356237305745
10
-27.763779527559052
20
-0.099999999999999117
10
-27.763779527559045
20
-23.899999999999999
42
-0.41421356237307044
10
-27.863779527559053
20
-24
0
LWPOLYLINE
5
101
100
AcDbEntity
8
0
100
AcDbPolyline
90
4
70
1
43
0.0
10
-33.688976377952763
20
-7.5130721379037553
10
-30.688976377952759
20
-7.5130721379037553
42
0.99999999999999989
10
-30.688976377952759
20
-6.942205996171471
10
-33.688976377952763
20
-6.942205996171471
42
0.99999999999999989
0
LWPOLYLINE
5
102
100
AcDbEntity
8
0
100
AcDbPolyline
90
4
70
1
43
0.0
10
-33.688976377952756
20
-2.0577940038285423
10
-30.688976377952756
20
-2.0577940038285423
42
0.99999999999999989
10
-30.688976377952756
20
-1.4869278620962592
10
-33.688976377952756
20
-1.4869278620962592
42
0.99999999999999989
0
LWPOLYLINE
5
103
100
AcDbEntity
8
0
100
AcDbPolyline
90
4
70
1
43
0.0
10
-38.413385826771666
20
-4.7854330708661479
10
-35.413385826771666
20
-4.7854330708661479
42
0.99999999999999989
10
-35.413385826771666
20
-4.2145669291338645
10
-38.413385826771666
20
-4.2145669291338645
42
0.99999999999999989
0
CIRCLE
5
104
100
AcDbEntity
8
0
100
AcDbCircle
10
-33.763779527559052
20
-23.606299212598422
30
0
40
0.10826771653543307
210
0
220
-0
230
1
0
CIRCLE
5
105
100
AcDbEntity
8
0
100
AcDbCircle
10
-28.157480314960626
20
-23.606299212598422
30
0
40
0.10826771653543307
210
0
220
-0
230
1
0
CIRCLE
5
106
100
AcDbEntity
8
0
100
AcDbCircle
10
-39.370078740157474
20
-17.803149606299211
30
0
40
0.10826771653543307
210
0
220
-0
230
1
0
CIRCLE
5
107
100
AcDbEntity
8
0
100
AcDbCircle
10
-28.157480314960626
20
-17.803149606299211
30
0
40
0.10826771653543307
210
0
220
-0
230
1
0
CIRCLE
5
108
100
AcDbEntity
8
0
100
AcDbCircle
10
-39.370078740157474
20
-12
30
0
40
0.10826771653543307
210
0
220
-0
230
1
0
CIRCLE
5
109
100
AcDbEntity
8
0
100
AcDbCircle
10
-28.157480314960626
20
-12
30
0
40
0.10826771653543307
210
0
220
-0
230
1
0
CIRCLE
5
110
100
AcDbEntity
8
0
100
AcDbCircle
10
-39.370078740157474
20
-6.1968503937007871
30
0
40
0.10826771653543307
210
0
220
-0
230
1
0
CIRCLE
5
111
100
AcDbEntity
8
0
100
AcDbCircle
10
-28.157480314960626
20
-6.1968503937007871
30
0
40
0.10826771653543307
210
0
220
-0
230
1
0
CIRCLE
5
112
100
AcDbEntity
8
0
100
AcDbCircle
10
-33.763779527559052
20
-0.39370078740157477
30
0
40
0.10826771653543307
210
0
220
-0
230
1
0
CIRCLE
5
113
100
AcDbEntity
8
0
100
AcDbCircle
10
-28.157480314960626
20
-0.39370078740157477
30
0
40
0.10826771653543307
210
0
220
-0
230
1
0
ENDSEC
0
SECTION
2
OBJECTS
0
DICTIONARY
5
C
100
AcDbDictionary
3
ACAD_GROUP
350
D
3
ACAD_MLINESTYLE
350
17
0
DICTIONARY
5
D
100
AcDbDictionary
0
DICTIONARY
5
1A
330
C
100
AcDbDictionary
0
DICTIONARY
5
17
100
AcDbDictionary
0
ENDSEC
0
EOF
