<?xml version="1.0" encoding="utf-8" standalone="no"?>
<!DOCTYPE svg PUBLIC "-//W3C//DTD SVG 1.1//EN"
  "http://www.w3.org/Graphics/SVG/1.1/DTD/svg11.dtd">
<!-- Created with matplotlib (https://matplotlib.org/) -->
<svg height="404.64pt" version="1.1" viewBox="0 0 540.72 404.64" width="540.72pt" xmlns="http://www.w3.org/2000/svg" xmlns:xlink="http://www.w3.org/1999/xlink">
 <defs>
  <style type="text/css">
*{stroke-linecap:butt;stroke-linejoin:round;}
  </style>
 </defs>
 <g id="figure_1">
  <g id="patch_1">
   <path d="M 0 404.64 
L 540.72 404.64 
L 540.72 0 
L 0 0 
z
" style="fill:#ffffff;"/>
  </g>
  <g id="axes_1">
   <g id="patch_2">
    <path d="M 67.59 360.1296 
L 486.648 360.1296 
L 486.648 48.5568 
L 67.59 48.5568 
z
" style="fill:#ffffff;"/>
   </g>
   <g id="matplotlib.axis_1">
    <g id="xtick_1">
     <g id="line2d_1">
      <defs>
       <path d="M 0 0 
L 0 3.5 
" id="m51979c05f4" style="stroke:#000000;stroke-width:0.8;"/>
      </defs>
      <g>
       <use style="stroke:#000000;stroke-width:0.8;" x="86.638091" xlink:href="#m51979c05f4" y="360.1296"/>
      </g>
     </g>
     <g id="text_1">
      <!-- 0 -->
      <defs>
       <path d="M 31.78125 66.40625 
Q 24.171875 66.40625 20.328125 58.90625 
Q 16.5 51.421875 16.5 36.375 
Q 16.5 21.390625 20.328125 13.890625 
Q 24.171875 6.390625 31.78125 6.390625 
Q 39.453125 6.390625 43.28125 13.890625 
Q 47.125 21.390625 47.125 36.375 
Q 47.125 51.421875 43.28125 58.90625 
Q 39.453125 66.40625 31.78125 66.40625 
z
M 31.78125 74.21875 
Q 44.046875 74.21875 50.515625 64.515625 
Q 56.984375 54.828125 56.984375 36.375 
Q 56.984375 17.96875 50.515625 8.265625 
Q 44.046875 -1.421875 31.78125 -1.421875 
Q 19.53125 -1.421875 13.0625 8.265625 
Q 6.59375 17.96875 6.59375 36.375 
Q 6.59375 54.828125 13.0625 64.515625 
Q 19.53125 74.21875 31.78125 74.21875 
z
" id="DejaVuSans-48"/>
      </defs>
      <g transform="translate(83.456841 374.728038)scale(0.1 -0.1)">
       <use xlink:href="#DejaVuSans-48"/>
      </g>
     </g>
    </g>
    <g id="xtick_2">
     <g id="line2d_2">
      <g>
       <use style="stroke:#000000;stroke-width:0.8;" x="138.119418" xlink:href="#m51979c05f4" y="360.1296"/>
      </g>
     </g>
     <g id="text_2">
      <!-- 10 -->
      <defs>
       <path d="M 12.40625 8.296875 
L 28.515625 8.296875 
L 28.515625 63.921875 
L 10.984375 60.40625 
L 10.984375 69.390625 
L 28.421875 72.90625 
L 38.28125 72.90625 
L 38.28125 8.296875 
L 54.390625 8.296875 
L 54.390625 0 
L 12.40625 0 
z
" id="DejaVuSans-49"/>
      </defs>
      <g transform="translate(131.756918 374.728038)scale(0.1 -0.1)">
       <use xlink:href="#DejaVuSans-49"/>
       <use x="63.623047" xlink:href="#DejaVuSans-48"/>
      </g>
     </g>
    </g>
    <g id="xtick_3">
     <g id="line2d_3">
      <g>
       <use style="stroke:#000000;stroke-width:0.8;" x="189.600744" xlink:href="#m51979c05f4" y="360.1296"/>
      </g>
     </g>
     <g id="text_3">
      <!-- 20 -->
      <defs>
       <path d="M 19.1875 8.296875 
L 53.609375 8.296875 
L 53.609375 0 
L 7.328125 0 
L 7.328125 8.296875 
Q 12.9375 14.109375 22.625 23.890625 
Q 32.328125 33.6875 34.8125 36.53125 
Q 39.546875 41.84375 41.421875 45.53125 
Q 43.3125 49.21875 43.3125 52.78125 
Q 43.3125 58.59375 39.234375 62.25 
Q 35.15625 65.921875 28.609375 65.921875 
Q 23.96875 65.921875 18.8125 64.3125 
Q 13.671875 62.703125 7.8125 59.421875 
L 7.8125 69.390625 
Q 13.765625 71.78125 18.9375 73 
Q 24.125 74.21875 28.421875 74.21875 
Q 39.75 74.21875 46.484375 68.546875 
Q 53.21875 62.890625 53.21875 53.421875 
Q 53.21875 48.921875 51.53125 44.890625 
Q 49.859375 40.875 45.40625 35.40625 
Q 44.1875 33.984375 37.640625 27.21875 
Q 31.109375 20.453125 19.1875 8.296875 
z
" id="DejaVuSans-50"/>
      </defs>
      <g transform="translate(183.238244 374.728038)scale(0.1 -0.1)">
       <use xlink:href="#DejaVuSans-50"/>
       <use x="63.623047" xlink:href="#DejaVuSans-48"/>
      </g>
     </g>
    </g>
    <g id="xtick_4">
     <g id="line2d_4">
      <g>
       <use style="stroke:#000000;stroke-width:0.8;" x="241.082071" xlink:href="#m51979c05f4" y="360.1296"/>
      </g>
     </g>
     <g id="text_4">
      <!-- 30 -->
      <defs>
       <path d="M 40.578125 39.3125 
Q 47.65625 37.796875 51.625 33 
Q 55.609375 28.21875 55.609375 21.1875 
Q 55.609375 10.40625 48.1875 4.484375 
Q 40.765625 -1.421875 27.09375 -1.421875 
Q 22.515625 -1.421875 17.65625 -0.515625 
Q 12.796875 0.390625 7.625 2.203125 
L 7.625 11.71875 
Q 11.71875 9.328125 16.59375 8.109375 
Q 21.484375 6.890625 26.8125 6.890625 
Q 36.078125 6.890625 40.9375 10.546875 
Q 45.796875 14.203125 45.796875 21.1875 
Q 45.796875 27.640625 41.28125 31.265625 
Q 36.765625 34.90625 28.71875 34.90625 
L 20.21875 34.90625 
L 20.21875 43.015625 
L 29.109375 43.015625 
Q 36.375 43.015625 40.234375 45.921875 
Q 44.09375 48.828125 44.09375 54.296875 
Q 44.09375 59.90625 40.109375 62.90625 
Q 36.140625 65.921875 28.71875 65.921875 
Q 24.65625 65.921875 20.015625 65.03125 
Q 15.375 64.15625 9.8125 62.3125 
L 9.8125 71.09375 
Q 15.4375 72.65625 20.34375 73.4375 
Q 25.25 74.21875 29.59375 74.21875 
Q 40.828125 74.21875 47.359375 69.109375 
Q 53.90625 64.015625 53.90625 55.328125 
Q 53.90625 49.265625 50.4375 45.09375 
Q 46.96875 40.921875 40.578125 39.3125 
z
" id="DejaVuSans-51"/>
      </defs>
      <g transform="translate(234.719571 374.728038)scale(0.1 -0.1)">
       <use xlink:href="#DejaVuSans-51"/>
       <use x="63.623047" xlink:href="#DejaVuSans-48"/>
      </g>
     </g>
    </g>
    <g id="xtick_5">
     <g id="line2d_5">
      <g>
       <use style="stroke:#000000;stroke-width:0.8;" x="292.563398" xlink:href="#m51979c05f4" y="360.1296"/>
      </g>
     </g>
     <g id="text_5">
      <!-- 40 -->
      <defs>
       <path d="M 37.796875 64.3125 
L 12.890625 25.390625 
L 37.796875 25.390625 
z
M 35.203125 72.90625 
L 47.609375 72.90625 
L 47.609375 25.390625 
L 58.015625 25.390625 
L 58.015625 17.1875 
L 47.609375 17.1875 
L 47.609375 0 
L 37.796875 0 
L 37.796875 17.1875 
L 4.890625 17.1875 
L 4.890625 26.703125 
z
" id="DejaVuSans-52"/>
      </defs>
      <g transform="translate(286.200898 374.728038)scale(0.1 -0.1)">
       <use xlink:href="#DejaVuSans-52"/>
       <use x="63.623047" xlink:href="#DejaVuSans-48"/>
      </g>
     </g>
    </g>
    <g id="xtick_6">
     <g id="line2d_6">
      <g>
       <use style="stroke:#000000;stroke-width:0.8;" x="344.044725" xlink:href="#m51979c05f4" y="360.1296"/>
      </g>
     </g>
     <g id="text_6">
      <!-- 50 -->
      <defs>
       <path d="M 10.796875 72.90625 
L 49.515625 72.90625 
L 49.515625 64.59375 
L 19.828125 64.59375 
L 19.828125 46.734375 
Q 21.96875 47.46875 24.109375 47.828125 
Q 26.265625 48.1875 28.421875 48.1875 
Q 40.625 48.1875 47.75 41.5 
Q 54.890625 34.8125 54.890625 23.390625 
Q 54.890625 11.625 47.5625 5.09375 
Q 40.234375 -1.421875 26.90625 -1.421875 
Q 22.3125 -1.421875 17.546875 -0.640625 
Q 12.796875 0.140625 7.71875 1.703125 
L 7.71875 11.625 
Q 12.109375 9.234375 16.796875 8.0625 
Q 21.484375 6.890625 26.703125 6.890625 
Q 35.15625 6.890625 40.078125 11.328125 
Q 45.015625 15.765625 45.015625 23.390625 
Q 45.015625 31 40.078125 35.4375 
Q 35.15625 39.890625 26.703125 39.890625 
Q 22.75 39.890625 18.8125 39.015625 
Q 14.890625 38.140625 10.796875 36.28125 
z
" id="DejaVuSans-53"/>
      </defs>
      <g transform="translate(337.682225 374.728038)scale(0.1 -0.1)">
       <use xlink:href="#DejaVuSans-53"/>
       <use x="63.623047" xlink:href="#DejaVuSans-48"/>
      </g>
     </g>
    </g>
    <g id="xtick_7">
     <g id="line2d_7">
      <g>
       <use style="stroke:#000000;stroke-width:0.8;" x="395.526052" xlink:href="#m51979c05f4" y="360.1296"/>
      </g>
     </g>
     <g id="text_7">
      <!-- 60 -->
      <defs>
       <path d="M 33.015625 40.375 
Q 26.375 40.375 22.484375 35.828125 
Q 18.609375 31.296875 18.609375 23.390625 
Q 18.609375 15.53125 22.484375 10.953125 
Q 26.375 6.390625 33.015625 6.390625 
Q 39.65625 6.390625 43.53125 10.953125 
Q 47.40625 15.53125 47.40625 23.390625 
Q 47.40625 31.296875 43.53125 35.828125 
Q 39.65625 40.375 33.015625 40.375 
z
M 52.59375 71.296875 
L 52.59375 62.3125 
Q 48.875 64.0625 45.09375 64.984375 
Q 41.3125 65.921875 37.59375 65.921875 
Q 27.828125 65.921875 22.671875 59.328125 
Q 17.53125 52.734375 16.796875 39.40625 
Q 19.671875 43.65625 24.015625 45.921875 
Q 28.375 48.1875 33.59375 48.1875 
Q 44.578125 48.1875 50.953125 41.515625 
Q 57.328125 34.859375 57.328125 23.390625 
Q 57.328125 12.15625 50.6875 5.359375 
Q 44.046875 -1.421875 33.015625 -1.421875 
Q 20.359375 -1.421875 13.671875 8.265625 
Q 6.984375 17.96875 6.984375 36.375 
Q 6.984375 53.65625 15.1875 63.9375 
Q 23.390625 74.21875 37.203125 74.21875 
Q 40.921875 74.21875 44.703125 73.484375 
Q 48.484375 72.75 52.59375 71.296875 
z
" id="DejaVuSans-54"/>
      </defs>
      <g transform="translate(389.163552 374.728038)scale(0.1 -0.1)">
       <use xlink:href="#DejaVuSans-54"/>
       <use x="63.623047" xlink:href="#DejaVuSans-48"/>
      </g>
     </g>
    </g>
    <g id="xtick_8">
     <g id="line2d_8">
      <g>
       <use style="stroke:#000000;stroke-width:0.8;" x="447.007378" xlink:href="#m51979c05f4" y="360.1296"/>
      </g>
     </g>
     <g id="text_8">
      <!-- 70 -->
      <defs>
       <path d="M 8.203125 72.90625 
L 55.078125 72.90625 
L 55.078125 68.703125 
L 28.609375 0 
L 18.3125 0 
L 43.21875 64.59375 
L 8.203125 64.59375 
z
" id="DejaVuSans-55"/>
      </defs>
      <g transform="translate(440.644878 374.728038)scale(0.1 -0.1)">
       <use xlink:href="#DejaVuSans-55"/>
       <use x="63.623047" xlink:href="#DejaVuSans-48"/>
      </g>
     </g>
    </g>
    <g id="text_9">
     <!-- Image # -->
     <defs>
      <path d="M 9.8125 72.90625 
L 19.671875 72.90625 
L 19.671875 0 
L 9.8125 0 
z
" id="DejaVuSans-73"/>
      <path d="M 52 44.1875 
Q 55.375 50.25 60.0625 53.125 
Q 64.75 56 71.09375 56 
Q 79.640625 56 84.28125 50.015625 
Q 88.921875 44.046875 88.921875 33.015625 
L 88.921875 0 
L 79.890625 0 
L 79.890625 32.71875 
Q 79.890625 40.578125 77.09375 44.375 
Q 74.3125 48.1875 68.609375 48.1875 
Q 61.625 48.1875 57.5625 43.546875 
Q 53.515625 38.921875 53.515625 30.90625 
L 53.515625 0 
L 44.484375 0 
L 44.484375 32.71875 
Q 44.484375 40.625 41.703125 44.40625 
Q 38.921875 48.1875 33.109375 48.1875 
Q 26.21875 48.1875 22.15625 43.53125 
Q 18.109375 38.875 18.109375 30.90625 
L 18.109375 0 
L 9.078125 0 
L 9.078125 54.6875 
L 18.109375 54.6875 
L 18.109375 46.1875 
Q 21.1875 51.21875 25.484375 53.609375 
Q 29.78125 56 35.6875 56 
Q 41.65625 56 45.828125 52.96875 
Q 50 49.953125 52 44.1875 
z
" id="DejaVuSans-109"/>
      <path d="M 34.28125 27.484375 
Q 23.390625 27.484375 19.1875 25 
Q 14.984375 22.515625 14.984375 16.5 
Q 14.984375 11.71875 18.140625 8.90625 
Q 21.296875 6.109375 26.703125 6.109375 
Q 34.1875 6.109375 38.703125 11.40625 
Q 43.21875 16.703125 43.21875 25.484375 
L 43.21875 27.484375 
z
M 52.203125 31.203125 
L 52.203125 0 
L 43.21875 0 
L 43.21875 8.296875 
Q 40.140625 3.328125 35.546875 0.953125 
Q 30.953125 -1.421875 24.3125 -1.421875 
Q 15.921875 -1.421875 10.953125 3.296875 
Q 6 8.015625 6 15.921875 
Q 6 25.140625 12.171875 29.828125 
Q 18.359375 34.515625 30.609375 34.515625 
L 43.21875 34.515625 
L 43.21875 35.40625 
Q 43.21875 41.609375 39.140625 45 
Q 35.0625 48.390625 27.6875 48.390625 
Q 23 48.390625 18.546875 47.265625 
Q 14.109375 46.140625 10.015625 43.890625 
L 10.015625 52.203125 
Q 14.9375 54.109375 19.578125 55.046875 
Q 24.21875 56 28.609375 56 
Q 40.484375 56 46.34375 49.84375 
Q 52.203125 43.703125 52.203125 31.203125 
z
" id="DejaVuSans-97"/>
      <path d="M 45.40625 27.984375 
Q 45.40625 37.75 41.375 43.109375 
Q 37.359375 48.484375 30.078125 48.484375 
Q 22.859375 48.484375 18.828125 43.109375 
Q 14.796875 37.75 14.796875 27.984375 
Q 14.796875 18.265625 18.828125 12.890625 
Q 22.859375 7.515625 30.078125 7.515625 
Q 37.359375 7.515625 41.375 12.890625 
Q 45.40625 18.265625 45.40625 27.984375 
z
M 54.390625 6.78125 
Q 54.390625 -7.171875 48.1875 -13.984375 
Q 42 -20.796875 29.203125 -20.796875 
Q 24.46875 -20.796875 20.265625 -20.09375 
Q 16.0625 -19.390625 12.109375 -17.921875 
L 12.109375 -9.1875 
Q 16.0625 -11.328125 19.921875 -12.34375 
Q 23.78125 -13.375 27.78125 -13.375 
Q 36.625 -13.375 41.015625 -8.765625 
Q 45.40625 -4.15625 45.40625 5.171875 
L 45.40625 9.625 
Q 42.625 4.78125 38.28125 2.390625 
Q 33.9375 0 27.875 0 
Q 17.828125 0 11.671875 7.65625 
Q 5.515625 15.328125 5.515625 27.984375 
Q 5.515625 40.671875 11.671875 48.328125 
Q 17.828125 56 27.875 56 
Q 33.9375 56 38.28125 53.609375 
Q 42.625 51.21875 45.40625 46.390625 
L 45.40625 54.6875 
L 54.390625 54.6875 
z
" id="DejaVuSans-103"/>
      <path d="M 56.203125 29.59375 
L 56.203125 25.203125 
L 14.890625 25.203125 
Q 15.484375 15.921875 20.484375 11.0625 
Q 25.484375 6.203125 34.421875 6.203125 
Q 39.59375 6.203125 44.453125 7.46875 
Q 49.3125 8.734375 54.109375 11.28125 
L 54.109375 2.78125 
Q 49.265625 0.734375 44.1875 -0.34375 
Q 39.109375 -1.421875 33.890625 -1.421875 
Q 20.796875 -1.421875 13.15625 6.1875 
Q 5.515625 13.8125 5.515625 26.8125 
Q 5.515625 40.234375 12.765625 48.109375 
Q 20.015625 56 32.328125 56 
Q 43.359375 56 49.78125 48.890625 
Q 56.203125 41.796875 56.203125 29.59375 
z
M 47.21875 32.234375 
Q 47.125 39.59375 43.09375 43.984375 
Q 39.0625 48.390625 32.421875 48.390625 
Q 24.90625 48.390625 20.390625 44.140625 
Q 15.875 39.890625 15.1875 32.171875 
z
" id="DejaVuSans-101"/>
      <path id="DejaVuSans-32"/>
      <path d="M 51.125 44 
L 36.921875 44 
L 32.8125 27.6875 
L 47.125 27.6875 
z
M 43.796875 71.78125 
L 38.71875 51.515625 
L 52.984375 51.515625 
L 58.109375 71.78125 
L 65.921875 71.78125 
L 60.890625 51.515625 
L 76.125 51.515625 
L 76.125 44 
L 58.984375 44 
L 54.984375 27.6875 
L 70.515625 27.6875 
L 70.515625 20.21875 
L 53.078125 20.21875 
L 48 0 
L 40.1875 0 
L 45.21875 20.21875 
L 30.90625 20.21875 
L 25.875 0 
L 18.015625 0 
L 23.09375 20.21875 
L 7.71875 20.21875 
L 7.71875 27.6875 
L 24.90625 27.6875 
L 29 44 
L 13.28125 44 
L 13.28125 51.515625 
L 30.90625 51.515625 
L 35.890625 71.78125 
z
" id="DejaVuSans-35"/>
     </defs>
     <g transform="translate(255.679938 388.406162)scale(0.1 -0.1)">
      <use xlink:href="#DejaVuSans-73"/>
      <use x="29.492188" xlink:href="#DejaVuSans-109"/>
      <use x="126.904297" xlink:href="#DejaVuSans-97"/>
      <use x="188.183594" xlink:href="#DejaVuSans-103"/>
      <use x="251.660156" xlink:href="#DejaVuSans-101"/>
      <use x="313.183594" xlink:href="#DejaVuSans-32"/>
      <use x="344.970703" xlink:href="#DejaVuSans-35"/>
     </g>
    </g>
   </g>
   <g id="matplotlib.axis_2">
    <g id="ytick_1">
     <g id="line2d_9">
      <defs>
       <path d="M 0 0 
L -3.5 0 
" id="m0cffc7226f" style="stroke:#000000;stroke-width:0.8;"/>
      </defs>
      <g>
       <use style="stroke:#000000;stroke-width:0.8;" x="67.59" xlink:href="#m0cffc7226f" y="326.252039"/>
      </g>
     </g>
     <g id="text_10">
      <!-- 0.1 -->
      <defs>
       <path d="M 10.6875 12.40625 
L 21 12.40625 
L 21 0 
L 10.6875 0 
z
" id="DejaVuSans-46"/>
      </defs>
      <g transform="translate(44.686875 330.051258)scale(0.1 -0.1)">
       <use xlink:href="#DejaVuSans-48"/>
       <use x="63.623047" xlink:href="#DejaVuSans-46"/>
       <use x="95.410156" xlink:href="#DejaVuSans-49"/>
      </g>
     </g>
    </g>
    <g id="ytick_2">
     <g id="line2d_10">
      <g>
       <use style="stroke:#000000;stroke-width:0.8;" x="67.59" xlink:href="#m0cffc7226f" y="268.126607"/>
      </g>
     </g>
     <g id="text_11">
      <!-- 0.2 -->
      <g transform="translate(44.686875 271.925826)scale(0.1 -0.1)">
       <use xlink:href="#DejaVuSans-48"/>
       <use x="63.623047" xlink:href="#DejaVuSans-46"/>
       <use x="95.410156" xlink:href="#DejaVuSans-50"/>
      </g>
     </g>
    </g>
    <g id="ytick_3">
     <g id="line2d_11">
      <g>
       <use style="stroke:#000000;stroke-width:0.8;" x="67.59" xlink:href="#m0cffc7226f" y="210.001175"/>
      </g>
     </g>
     <g id="text_12">
      <!-- 0.3 -->
      <g transform="translate(44.686875 213.800394)scale(0.1 -0.1)">
       <use xlink:href="#DejaVuSans-48"/>
       <use x="63.623047" xlink:href="#DejaVuSans-46"/>
       <use x="95.410156" xlink:href="#DejaVuSans-51"/>
      </g>
     </g>
    </g>
    <g id="ytick_4">
     <g id="line2d_12">
      <g>
       <use style="stroke:#000000;stroke-width:0.8;" x="67.59" xlink:href="#m0cffc7226f" y="151.875743"/>
      </g>
     </g>
     <g id="text_13">
      <!-- 0.4 -->
      <g transform="translate(44.686875 155.674961)scale(0.1 -0.1)">
       <use xlink:href="#DejaVuSans-48"/>
       <use x="63.623047" xlink:href="#DejaVuSans-46"/>
       <use x="95.410156" xlink:href="#DejaVuSans-52"/>
      </g>
     </g>
    </g>
    <g id="ytick_5">
     <g id="line2d_13">
      <g>
       <use style="stroke:#000000;stroke-width:0.8;" x="67.59" xlink:href="#m0cffc7226f" y="93.750311"/>
      </g>
     </g>
     <g id="text_14">
      <!-- 0.5 -->
      <g transform="translate(44.686875 97.549529)scale(0.1 -0.1)">
       <use xlink:href="#DejaVuSans-48"/>
       <use x="63.623047" xlink:href="#DejaVuSans-46"/>
       <use x="95.410156" xlink:href="#DejaVuSans-53"/>
      </g>
     </g>
    </g>
    <g id="text_15">
     <!-- Error, pixels -->
     <defs>
      <path d="M 9.8125 72.90625 
L 55.90625 72.90625 
L 55.90625 64.59375 
L 19.671875 64.59375 
L 19.671875 43.015625 
L 54.390625 43.015625 
L 54.390625 34.71875 
L 19.671875 34.71875 
L 19.671875 8.296875 
L 56.78125 8.296875 
L 56.78125 0 
L 9.8125 0 
z
" id="DejaVuSans-69"/>
      <path d="M 41.109375 46.296875 
Q 39.59375 47.171875 37.8125 47.578125 
Q 36.03125 48 33.890625 48 
Q 26.265625 48 22.1875 43.046875 
Q 18.109375 38.09375 18.109375 28.8125 
L 18.109375 0 
L 9.078125 0 
L 9.078125 54.6875 
L 18.109375 54.6875 
L 18.109375 46.1875 
Q 20.953125 51.171875 25.484375 53.578125 
Q 30.03125 56 36.53125 56 
Q 37.453125 56 38.578125 55.875 
Q 39.703125 55.765625 41.0625 55.515625 
z
" id="DejaVuSans-114"/>
      <path d="M 30.609375 48.390625 
Q 23.390625 48.390625 19.1875 42.75 
Q 14.984375 37.109375 14.984375 27.296875 
Q 14.984375 17.484375 19.15625 11.84375 
Q 23.34375 6.203125 30.609375 6.203125 
Q 37.796875 6.203125 41.984375 11.859375 
Q 46.1875 17.53125 46.1875 27.296875 
Q 46.1875 37.015625 41.984375 42.703125 
Q 37.796875 48.390625 30.609375 48.390625 
z
M 30.609375 56 
Q 42.328125 56 49.015625 48.375 
Q 55.71875 40.765625 55.71875 27.296875 
Q 55.71875 13.875 49.015625 6.21875 
Q 42.328125 -1.421875 30.609375 -1.421875 
Q 18.84375 -1.421875 12.171875 6.21875 
Q 5.515625 13.875 5.515625 27.296875 
Q 5.515625 40.765625 12.171875 48.375 
Q 18.84375 56 30.609375 56 
z
" id="DejaVuSans-111"/>
      <path d="M 11.71875 12.40625 
L 22.015625 12.40625 
L 22.015625 4 
L 14.015625 -11.625 
L 7.71875 -11.625 
L 11.71875 4 
z
" id="DejaVuSans-44"/>
      <path d="M 18.109375 8.203125 
L 18.109375 -20.796875 
L 9.078125 -20.796875 
L 9.078125 54.6875 
L 18.109375 54.6875 
L 18.109375 46.390625 
Q 20.953125 51.265625 25.265625 53.625 
Q 29.59375 56 35.59375 56 
Q 45.5625 56 51.78125 48.09375 
Q 58.015625 40.1875 58.015625 27.296875 
Q 58.015625 14.40625 51.78125 6.484375 
Q 45.5625 -1.421875 35.59375 -1.421875 
Q 29.59375 -1.421875 25.265625 0.953125 
Q 20.953125 3.328125 18.109375 8.203125 
z
M 48.6875 27.296875 
Q 48.6875 37.203125 44.609375 42.84375 
Q 40.53125 48.484375 33.40625 48.484375 
Q 26.265625 48.484375 22.1875 42.84375 
Q 18.109375 37.203125 18.109375 27.296875 
Q 18.109375 17.390625 22.1875 11.75 
Q 26.265625 6.109375 33.40625 6.109375 
Q 40.53125 6.109375 44.609375 11.75 
Q 48.6875 17.390625 48.6875 27.296875 
z
" id="DejaVuSans-112"/>
      <path d="M 9.421875 54.6875 
L 18.40625 54.6875 
L 18.40625 0 
L 9.421875 0 
z
M 9.421875 75.984375 
L 18.40625 75.984375 
L 18.40625 64.59375 
L 9.421875 64.59375 
z
" id="DejaVuSans-105"/>
      <path d="M 54.890625 54.6875 
L 35.109375 28.078125 
L 55.90625 0 
L 45.3125 0 
L 29.390625 21.484375 
L 13.484375 0 
L 2.875 0 
L 24.125 28.609375 
L 4.6875 54.6875 
L 15.28125 54.6875 
L 29.78125 35.203125 
L 44.28125 54.6875 
z
" id="DejaVuSans-120"/>
      <path d="M 9.421875 75.984375 
L 18.40625 75.984375 
L 18.40625 0 
L 9.421875 0 
z
" id="DejaVuSans-108"/>
      <path d="M 44.28125 53.078125 
L 44.28125 44.578125 
Q 40.484375 46.53125 36.375 47.5 
Q 32.28125 48.484375 27.875 48.484375 
Q 21.1875 48.484375 17.84375 46.4375 
Q 14.5 44.390625 14.5 40.28125 
Q 14.5 37.15625 16.890625 35.375 
Q 19.28125 33.59375 26.515625 31.984375 
L 29.59375 31.296875 
Q 39.15625 29.25 43.1875 25.515625 
Q 47.21875 21.78125 47.21875 15.09375 
Q 47.21875 7.46875 41.1875 3.015625 
Q 35.15625 -1.421875 24.609375 -1.421875 
Q 20.21875 -1.421875 15.453125 -0.5625 
Q 10.6875 0.296875 5.421875 2 
L 5.421875 11.28125 
Q 10.40625 8.6875 15.234375 7.390625 
Q 20.0625 6.109375 24.8125 6.109375 
Q 31.15625 6.109375 34.5625 8.28125 
Q 37.984375 10.453125 37.984375 14.40625 
Q 37.984375 18.0625 35.515625 20.015625 
Q 33.0625 21.96875 24.703125 23.78125 
L 21.578125 24.515625 
Q 13.234375 26.265625 9.515625 29.90625 
Q 5.8125 33.546875 5.8125 39.890625 
Q 5.8125 47.609375 11.28125 51.796875 
Q 16.75 56 26.8125 56 
Q 31.78125 56 36.171875 55.265625 
Q 40.578125 54.546875 44.28125 53.078125 
z
" id="DejaVuSans-115"/>
     </defs>
     <g transform="translate(38.607187 234.494763)rotate(-90)scale(0.1 -0.1)">
      <use xlink:href="#DejaVuSans-69"/>
      <use x="63.183594" xlink:href="#DejaVuSans-114"/>
      <use x="104.28125" xlink:href="#DejaVuSans-114"/>
      <use x="145.363281" xlink:href="#DejaVuSans-111"/>
      <use x="206.544922" xlink:href="#DejaVuSans-114"/>
      <use x="247.658203" xlink:href="#DejaVuSans-44"/>
      <use x="279.445312" xlink:href="#DejaVuSans-32"/>
      <use x="311.232422" xlink:href="#DejaVuSans-112"/>
      <use x="374.708984" xlink:href="#DejaVuSans-105"/>
      <use x="402.492188" xlink:href="#DejaVuSans-120"/>
      <use x="461.625" xlink:href="#DejaVuSans-101"/>
      <use x="523.148438" xlink:href="#DejaVuSans-108"/>
      <use x="550.931641" xlink:href="#DejaVuSans-115"/>
     </g>
    </g>
   </g>
   <g id="line2d_14">
    <defs>
     <path d="M 0 1.5 
C 0.397805 1.5 0.77937 1.341951 1.06066 1.06066 
C 1.341951 0.77937 1.5 0.397805 1.5 0 
C 1.5 -0.397805 1.341951 -0.77937 1.06066 -1.06066 
C 0.77937 -1.341951 0.397805 -1.5 0 -1.5 
C -0.397805 -1.5 -0.77937 -1.341951 -1.06066 -1.06066 
C -1.341951 -0.77937 -1.5 -0.397805 -1.5 0 
C -1.5 0.397805 -1.341951 0.77937 -1.06066 1.06066 
C -0.77937 1.341951 -0.397805 1.5 0 1.5 
z
" id="mcae13345d6" style="stroke:#ff0000;"/>
    </defs>
    <g clip-path="url(#p8b4ab5a99c)">
     <use style="fill:#ff0000;stroke:#ff0000;" x="86.638091" xlink:href="#mcae13345d6" y="324.050818"/>
     <use style="fill:#ff0000;stroke:#ff0000;" x="91.786224" xlink:href="#mcae13345d6" y="338.025923"/>
     <use style="fill:#ff0000;stroke:#ff0000;" x="96.934356" xlink:href="#mcae13345d6" y="339.833543"/>
     <use style="fill:#ff0000;stroke:#ff0000;" x="102.082489" xlink:href="#mcae13345d6" y="340.760006"/>
     <use style="fill:#ff0000;stroke:#ff0000;" x="107.230622" xlink:href="#mcae13345d6" y="342.79646"/>
     <use style="fill:#ff0000;stroke:#ff0000;" x="112.378754" xlink:href="#mcae13345d6" y="342.313639"/>
     <use style="fill:#ff0000;stroke:#ff0000;" x="117.526887" xlink:href="#mcae13345d6" y="343.263327"/>
     <use style="fill:#ff0000;stroke:#ff0000;" x="122.67502" xlink:href="#mcae13345d6" y="344.435424"/>
     <use style="fill:#ff0000;stroke:#ff0000;" x="127.823152" xlink:href="#mcae13345d6" y="343.503192"/>
     <use style="fill:#ff0000;stroke:#ff0000;" x="132.971285" xlink:href="#mcae13345d6" y="127.170806"/>
     <use style="fill:#ff0000;stroke:#ff0000;" x="138.119418" xlink:href="#mcae13345d6" y="307.276502"/>
     <use style="fill:#ff0000;stroke:#ff0000;" x="143.26755" xlink:href="#mcae13345d6" y="324.052398"/>
     <use style="fill:#ff0000;stroke:#ff0000;" x="148.415683" xlink:href="#mcae13345d6" y="322.373805"/>
     <use style="fill:#ff0000;stroke:#ff0000;" x="153.563816" xlink:href="#mcae13345d6" y="182.542944"/>
     <use style="fill:#ff0000;stroke:#ff0000;" x="158.711948" xlink:href="#mcae13345d6" y="308.415461"/>
     <use style="fill:#ff0000;stroke:#ff0000;" x="163.860081" xlink:href="#mcae13345d6" y="62.7192"/>
     <use style="fill:#ff0000;stroke:#ff0000;" x="169.008214" xlink:href="#mcae13345d6" y="125.084671"/>
     <use style="fill:#ff0000;stroke:#ff0000;" x="174.156346" xlink:href="#mcae13345d6" y="330.079422"/>
     <use style="fill:#ff0000;stroke:#ff0000;" x="179.304479" xlink:href="#mcae13345d6" y="336.658497"/>
     <use style="fill:#ff0000;stroke:#ff0000;" x="184.452612" xlink:href="#mcae13345d6" y="336.611259"/>
     <use style="fill:#ff0000;stroke:#ff0000;" x="189.600744" xlink:href="#mcae13345d6" y="333.49883"/>
     <use style="fill:#ff0000;stroke:#ff0000;" x="194.748877" xlink:href="#mcae13345d6" y="331.557604"/>
     <use style="fill:#ff0000;stroke:#ff0000;" x="199.89701" xlink:href="#mcae13345d6" y="324.758554"/>
     <use style="fill:#ff0000;stroke:#ff0000;" x="205.045143" xlink:href="#mcae13345d6" y="325.077691"/>
     <use style="fill:#ff0000;stroke:#ff0000;" x="210.193275" xlink:href="#mcae13345d6" y="321.51016"/>
     <use style="fill:#ff0000;stroke:#ff0000;" x="215.341408" xlink:href="#mcae13345d6" y="329.749831"/>
     <use style="fill:#ff0000;stroke:#ff0000;" x="220.489541" xlink:href="#mcae13345d6" y="332.811853"/>
     <use style="fill:#ff0000;stroke:#ff0000;" x="225.637673" xlink:href="#mcae13345d6" y="333.548062"/>
     <use style="fill:#ff0000;stroke:#ff0000;" x="230.785806" xlink:href="#mcae13345d6" y="337.425939"/>
     <use style="fill:#ff0000;stroke:#ff0000;" x="235.933939" xlink:href="#mcae13345d6" y="338.469934"/>
     <use style="fill:#ff0000;stroke:#ff0000;" x="241.082071" xlink:href="#mcae13345d6" y="338.347166"/>
     <use style="fill:#ff0000;stroke:#ff0000;" x="246.230204" xlink:href="#mcae13345d6" y="335.477571"/>
     <use style="fill:#ff0000;stroke:#ff0000;" x="251.378337" xlink:href="#mcae13345d6" y="343.2973"/>
     <use style="fill:#ff0000;stroke:#ff0000;" x="256.526469" xlink:href="#mcae13345d6" y="324.415309"/>
     <use style="fill:#ff0000;stroke:#ff0000;" x="261.674602" xlink:href="#mcae13345d6" y="342.630742"/>
     <use style="fill:#ff0000;stroke:#ff0000;" x="266.822735" xlink:href="#mcae13345d6" y="295.089318"/>
     <use style="fill:#ff0000;stroke:#ff0000;" x="271.970867" xlink:href="#mcae13345d6" y="337.322657"/>
     <use style="fill:#ff0000;stroke:#ff0000;" x="277.119" xlink:href="#mcae13345d6" y="216.129126"/>
     <use style="fill:#ff0000;stroke:#ff0000;" x="282.267133" xlink:href="#mcae13345d6" y="341.820414"/>
     <use style="fill:#ff0000;stroke:#ff0000;" x="287.415265" xlink:href="#mcae13345d6" y="342.106284"/>
     <use style="fill:#ff0000;stroke:#ff0000;" x="292.563398" xlink:href="#mcae13345d6" y="193.481205"/>
     <use style="fill:#ff0000;stroke:#ff0000;" x="297.711531" xlink:href="#mcae13345d6" y="343.477004"/>
     <use style="fill:#ff0000;stroke:#ff0000;" x="302.859663" xlink:href="#mcae13345d6" y="329.131587"/>
     <use style="fill:#ff0000;stroke:#ff0000;" x="308.007796" xlink:href="#mcae13345d6" y="332.570496"/>
     <use style="fill:#ff0000;stroke:#ff0000;" x="313.155929" xlink:href="#mcae13345d6" y="324.830302"/>
     <use style="fill:#ff0000;stroke:#ff0000;" x="318.304061" xlink:href="#mcae13345d6" y="320.571019"/>
     <use style="fill:#ff0000;stroke:#ff0000;" x="323.452194" xlink:href="#mcae13345d6" y="336.602912"/>
     <use style="fill:#ff0000;stroke:#ff0000;" x="328.600327" xlink:href="#mcae13345d6" y="334.347858"/>
     <use style="fill:#ff0000;stroke:#ff0000;" x="333.748459" xlink:href="#mcae13345d6" y="314.878929"/>
     <use style="fill:#ff0000;stroke:#ff0000;" x="338.896592" xlink:href="#mcae13345d6" y="335.523356"/>
     <use style="fill:#ff0000;stroke:#ff0000;" x="344.044725" xlink:href="#mcae13345d6" y="342.437112"/>
     <use style="fill:#ff0000;stroke:#ff0000;" x="349.192857" xlink:href="#mcae13345d6" y="294.247454"/>
     <use style="fill:#ff0000;stroke:#ff0000;" x="354.34099" xlink:href="#mcae13345d6" y="231.260042"/>
     <use style="fill:#ff0000;stroke:#ff0000;" x="359.489123" xlink:href="#mcae13345d6" y="334.707879"/>
     <use style="fill:#ff0000;stroke:#ff0000;" x="364.637256" xlink:href="#mcae13345d6" y="329.506009"/>
     <use style="fill:#ff0000;stroke:#ff0000;" x="369.785388" xlink:href="#mcae13345d6" y="324.084481"/>
     <use style="fill:#ff0000;stroke:#ff0000;" x="374.933521" xlink:href="#mcae13345d6" y="327.473393"/>
     <use style="fill:#ff0000;stroke:#ff0000;" x="380.081654" xlink:href="#mcae13345d6" y="333.540415"/>
     <use style="fill:#ff0000;stroke:#ff0000;" x="385.229786" xlink:href="#mcae13345d6" y="330.027459"/>
     <use style="fill:#ff0000;stroke:#ff0000;" x="390.377919" xlink:href="#mcae13345d6" y="334.096927"/>
     <use style="fill:#ff0000;stroke:#ff0000;" x="395.526052" xlink:href="#mcae13345d6" y="334.678795"/>
     <use style="fill:#ff0000;stroke:#ff0000;" x="400.674184" xlink:href="#mcae13345d6" y="306.331611"/>
     <use style="fill:#ff0000;stroke:#ff0000;" x="405.822317" xlink:href="#mcae13345d6" y="322.213324"/>
     <use style="fill:#ff0000;stroke:#ff0000;" x="410.97045" xlink:href="#mcae13345d6" y="288.107476"/>
     <use style="fill:#ff0000;stroke:#ff0000;" x="416.118582" xlink:href="#mcae13345d6" y="325.450914"/>
     <use style="fill:#ff0000;stroke:#ff0000;" x="421.266715" xlink:href="#mcae13345d6" y="327.889225"/>
     <use style="fill:#ff0000;stroke:#ff0000;" x="426.414848" xlink:href="#mcae13345d6" y="321.117371"/>
     <use style="fill:#ff0000;stroke:#ff0000;" x="431.56298" xlink:href="#mcae13345d6" y="325.653532"/>
     <use style="fill:#ff0000;stroke:#ff0000;" x="436.711113" xlink:href="#mcae13345d6" y="324.879469"/>
     <use style="fill:#ff0000;stroke:#ff0000;" x="441.859246" xlink:href="#mcae13345d6" y="324.50259"/>
     <use style="fill:#ff0000;stroke:#ff0000;" x="447.007378" xlink:href="#mcae13345d6" y="324.639765"/>
     <use style="fill:#ff0000;stroke:#ff0000;" x="452.155511" xlink:href="#mcae13345d6" y="324.87193"/>
     <use style="fill:#ff0000;stroke:#ff0000;" x="457.303644" xlink:href="#mcae13345d6" y="329.731051"/>
     <use style="fill:#ff0000;stroke:#ff0000;" x="462.451776" xlink:href="#mcae13345d6" y="335.858797"/>
    </g>
   </g>
   <g id="line2d_15">
    <defs>
     <path d="M 0 1.5 
C 0.397805 1.5 0.77937 1.341951 1.06066 1.06066 
C 1.341951 0.77937 1.5 0.397805 1.5 0 
C 1.5 -0.397805 1.341951 -0.77937 1.06066 -1.06066 
C 0.77937 -1.341951 0.397805 -1.5 0 -1.5 
C -0.397805 -1.5 -0.77937 -1.341951 -1.06066 -1.06066 
C -1.341951 -0.77937 -1.5 -0.397805 -1.5 0 
C -1.5 0.397805 -1.341951 0.77937 -1.06066 1.06066 
C -0.77937 1.341951 -0.397805 1.5 0 1.5 
z
" id="ma26904fa94" style="stroke:#0000ff;"/>
    </defs>
    <g clip-path="url(#p8b4ab5a99c)">
     <use style="fill:#0000ff;stroke:#0000ff;" x="91.786224" xlink:href="#ma26904fa94" y="339.203441"/>
     <use style="fill:#0000ff;stroke:#0000ff;" x="96.934356" xlink:href="#ma26904fa94" y="340.960392"/>
     <use style="fill:#0000ff;stroke:#0000ff;" x="102.082489" xlink:href="#ma26904fa94" y="342.034986"/>
     <use style="fill:#0000ff;stroke:#0000ff;" x="107.230622" xlink:href="#ma26904fa94" y="344.107523"/>
     <use style="fill:#0000ff;stroke:#0000ff;" x="112.378754" xlink:href="#ma26904fa94" y="343.766175"/>
     <use style="fill:#0000ff;stroke:#0000ff;" x="117.526887" xlink:href="#ma26904fa94" y="344.86132"/>
     <use style="fill:#0000ff;stroke:#0000ff;" x="122.67502" xlink:href="#ma26904fa94" y="345.9672"/>
     <use style="fill:#0000ff;stroke:#0000ff;" x="127.823152" xlink:href="#ma26904fa94" y="344.819789"/>
     <use style="fill:#0000ff;stroke:#0000ff;" x="174.156346" xlink:href="#ma26904fa94" y="333.021989"/>
     <use style="fill:#0000ff;stroke:#0000ff;" x="179.304479" xlink:href="#ma26904fa94" y="338.591875"/>
     <use style="fill:#0000ff;stroke:#0000ff;" x="184.452612" xlink:href="#ma26904fa94" y="338.537189"/>
     <use style="fill:#0000ff;stroke:#0000ff;" x="189.600744" xlink:href="#ma26904fa94" y="335.535215"/>
     <use style="fill:#0000ff;stroke:#0000ff;" x="194.748877" xlink:href="#ma26904fa94" y="333.497712"/>
     <use style="fill:#0000ff;stroke:#0000ff;" x="215.341408" xlink:href="#ma26904fa94" y="327.86525"/>
     <use style="fill:#0000ff;stroke:#0000ff;" x="220.489541" xlink:href="#ma26904fa94" y="330.92891"/>
     <use style="fill:#0000ff;stroke:#0000ff;" x="225.637673" xlink:href="#ma26904fa94" y="331.604686"/>
     <use style="fill:#0000ff;stroke:#0000ff;" x="230.785806" xlink:href="#ma26904fa94" y="336.724278"/>
     <use style="fill:#0000ff;stroke:#0000ff;" x="235.933939" xlink:href="#ma26904fa94" y="337.379623"/>
     <use style="fill:#0000ff;stroke:#0000ff;" x="241.082071" xlink:href="#ma26904fa94" y="337.555687"/>
     <use style="fill:#0000ff;stroke:#0000ff;" x="246.230204" xlink:href="#ma26904fa94" y="336.929188"/>
     <use style="fill:#0000ff;stroke:#0000ff;" x="251.378337" xlink:href="#ma26904fa94" y="343.440737"/>
     <use style="fill:#0000ff;stroke:#0000ff;" x="261.674602" xlink:href="#ma26904fa94" y="342.476259"/>
     <use style="fill:#0000ff;stroke:#0000ff;" x="271.970867" xlink:href="#ma26904fa94" y="337.921961"/>
     <use style="fill:#0000ff;stroke:#0000ff;" x="282.267133" xlink:href="#ma26904fa94" y="340.656803"/>
     <use style="fill:#0000ff;stroke:#0000ff;" x="287.415265" xlink:href="#ma26904fa94" y="340.795023"/>
     <use style="fill:#0000ff;stroke:#0000ff;" x="297.711531" xlink:href="#ma26904fa94" y="342.271103"/>
     <use style="fill:#0000ff;stroke:#0000ff;" x="302.859663" xlink:href="#ma26904fa94" y="327.896276"/>
     <use style="fill:#0000ff;stroke:#0000ff;" x="308.007796" xlink:href="#ma26904fa94" y="331.345996"/>
     <use style="fill:#0000ff;stroke:#0000ff;" x="323.452194" xlink:href="#ma26904fa94" y="338.092614"/>
     <use style="fill:#0000ff;stroke:#0000ff;" x="328.600327" xlink:href="#ma26904fa94" y="335.975242"/>
     <use style="fill:#0000ff;stroke:#0000ff;" x="338.896592" xlink:href="#ma26904fa94" y="334.592711"/>
     <use style="fill:#0000ff;stroke:#0000ff;" x="344.044725" xlink:href="#ma26904fa94" y="342.663774"/>
     <use style="fill:#0000ff;stroke:#0000ff;" x="359.489123" xlink:href="#ma26904fa94" y="334.826612"/>
     <use style="fill:#0000ff;stroke:#0000ff;" x="364.637256" xlink:href="#ma26904fa94" y="328.993722"/>
     <use style="fill:#0000ff;stroke:#0000ff;" x="374.933521" xlink:href="#ma26904fa94" y="326.404345"/>
     <use style="fill:#0000ff;stroke:#0000ff;" x="380.081654" xlink:href="#ma26904fa94" y="332.726767"/>
     <use style="fill:#0000ff;stroke:#0000ff;" x="385.229786" xlink:href="#ma26904fa94" y="330.450812"/>
     <use style="fill:#0000ff;stroke:#0000ff;" x="390.377919" xlink:href="#ma26904fa94" y="335.106044"/>
     <use style="fill:#0000ff;stroke:#0000ff;" x="395.526052" xlink:href="#ma26904fa94" y="333.886291"/>
     <use style="fill:#0000ff;stroke:#0000ff;" x="421.266715" xlink:href="#ma26904fa94" y="326.608186"/>
     <use style="fill:#0000ff;stroke:#0000ff;" x="457.303644" xlink:href="#ma26904fa94" y="330.773062"/>
     <use style="fill:#0000ff;stroke:#0000ff;" x="462.451776" xlink:href="#ma26904fa94" y="337.130277"/>
    </g>
   </g>
   <g id="line2d_16">
    <path clip-path="url(#p8b4ab5a99c)" d="M 86.638091 326.252039 
L 467.599909 326.252039 
" style="fill:none;stroke:#000000;stroke-dasharray:5.55,2.4;stroke-dashoffset:0;stroke-width:1.5;"/>
   </g>
   <g id="patch_3">
    <path d="M 67.59 360.1296 
L 67.59 48.5568 
" style="fill:none;stroke:#000000;stroke-linecap:square;stroke-linejoin:miter;stroke-width:0.8;"/>
   </g>
   <g id="patch_4">
    <path d="M 486.648 360.1296 
L 486.648 48.5568 
" style="fill:none;stroke:#000000;stroke-linecap:square;stroke-linejoin:miter;stroke-width:0.8;"/>
   </g>
   <g id="patch_5">
    <path d="M 67.59 360.1296 
L 486.648 360.1296 
" style="fill:none;stroke:#000000;stroke-linecap:square;stroke-linejoin:miter;stroke-width:0.8;"/>
   </g>
   <g id="patch_6">
    <path d="M 67.59 48.5568 
L 486.648 48.5568 
" style="fill:none;stroke:#000000;stroke-linecap:square;stroke-linejoin:miter;stroke-width:0.8;"/>
   </g>
   <g id="text_16">
    <!-- Camera Calibration Reprojection Errors -->
    <defs>
     <path d="M 64.40625 67.28125 
L 64.40625 56.890625 
Q 59.421875 61.53125 53.78125 63.8125 
Q 48.140625 66.109375 41.796875 66.109375 
Q 29.296875 66.109375 22.65625 58.46875 
Q 16.015625 50.828125 16.015625 36.375 
Q 16.015625 21.96875 22.65625 14.328125 
Q 29.296875 6.6875 41.796875 6.6875 
Q 48.140625 6.6875 53.78125 8.984375 
Q 59.421875 11.28125 64.40625 15.921875 
L 64.40625 5.609375 
Q 59.234375 2.09375 53.4375 0.328125 
Q 47.65625 -1.421875 41.21875 -1.421875 
Q 24.65625 -1.421875 15.125 8.703125 
Q 5.609375 18.84375 5.609375 36.375 
Q 5.609375 53.953125 15.125 64.078125 
Q 24.65625 74.21875 41.21875 74.21875 
Q 47.75 74.21875 53.53125 72.484375 
Q 59.328125 70.75 64.40625 67.28125 
z
" id="DejaVuSans-67"/>
     <path d="M 48.6875 27.296875 
Q 48.6875 37.203125 44.609375 42.84375 
Q 40.53125 48.484375 33.40625 48.484375 
Q 26.265625 48.484375 22.1875 42.84375 
Q 18.109375 37.203125 18.109375 27.296875 
Q 18.109375 17.390625 22.1875 11.75 
Q 26.265625 6.109375 33.40625 6.109375 
Q 40.53125 6.109375 44.609375 11.75 
Q 48.6875 17.390625 48.6875 27.296875 
z
M 18.109375 46.390625 
Q 20.953125 51.265625 25.265625 53.625 
Q 29.59375 56 35.59375 56 
Q 45.5625 56 51.78125 48.09375 
Q 58.015625 40.1875 58.015625 27.296875 
Q 58.015625 14.40625 51.78125 6.484375 
Q 45.5625 -1.421875 35.59375 -1.421875 
Q 29.59375 -1.421875 25.265625 0.953125 
Q 20.953125 3.328125 18.109375 8.203125 
L 18.109375 0 
L 9.078125 0 
L 9.078125 75.984375 
L 18.109375 75.984375 
z
" id="DejaVuSans-98"/>
     <path d="M 18.3125 70.21875 
L 18.3125 54.6875 
L 36.8125 54.6875 
L 36.8125 47.703125 
L 18.3125 47.703125 
L 18.3125 18.015625 
Q 18.3125 11.328125 20.140625 9.421875 
Q 21.96875 7.515625 27.59375 7.515625 
L 36.8125 7.515625 
L 36.8125 0 
L 27.59375 0 
Q 17.1875 0 13.234375 3.875 
Q 9.28125 7.765625 9.28125 18.015625 
L 9.28125 47.703125 
L 2.6875 47.703125 
L 2.6875 54.6875 
L 9.28125 54.6875 
L 9.28125 70.21875 
z
" id="DejaVuSans-116"/>
     <path d="M 54.890625 33.015625 
L 54.890625 0 
L 45.90625 0 
L 45.90625 32.71875 
Q 45.90625 40.484375 42.875 44.328125 
Q 39.84375 48.1875 33.796875 48.1875 
Q 26.515625 48.1875 22.3125 43.546875 
Q 18.109375 38.921875 18.109375 30.90625 
L 18.109375 0 
L 9.078125 0 
L 9.078125 54.6875 
L 18.109375 54.6875 
L 18.109375 46.1875 
Q 21.34375 51.125 25.703125 53.5625 
Q 30.078125 56 35.796875 56 
Q 45.21875 56 50.046875 50.171875 
Q 54.890625 44.34375 54.890625 33.015625 
z
" id="DejaVuSans-110"/>
     <path d="M 44.390625 34.1875 
Q 47.5625 33.109375 50.5625 29.59375 
Q 53.5625 26.078125 56.59375 19.921875 
L 66.609375 0 
L 56 0 
L 46.6875 18.703125 
Q 43.0625 26.03125 39.671875 28.421875 
Q 36.28125 30.8125 30.421875 30.8125 
L 19.671875 30.8125 
L 19.671875 0 
L 9.8125 0 
L 9.8125 72.90625 
L 32.078125 72.90625 
Q 44.578125 72.90625 50.734375 67.671875 
Q 56.890625 62.453125 56.890625 51.90625 
Q 56.890625 45.015625 53.6875 40.46875 
Q 50.484375 35.9375 44.390625 34.1875 
z
M 19.671875 64.796875 
L 19.671875 38.921875 
L 32.078125 38.921875 
Q 39.203125 38.921875 42.84375 42.21875 
Q 46.484375 45.515625 46.484375 51.90625 
Q 46.484375 58.296875 42.84375 61.546875 
Q 39.203125 64.796875 32.078125 64.796875 
z
" id="DejaVuSans-82"/>
     <path d="M 9.421875 54.6875 
L 18.40625 54.6875 
L 18.40625 -0.984375 
Q 18.40625 -11.421875 14.421875 -16.109375 
Q 10.453125 -20.796875 1.609375 -20.796875 
L -1.8125 -20.796875 
L -1.8125 -13.1875 
L 0.59375 -13.1875 
Q 5.71875 -13.1875 7.5625 -10.8125 
Q 9.421875 -8.453125 9.421875 -0.984375 
z
M 9.421875 75.984375 
L 18.40625 75.984375 
L 18.40625 64.59375 
L 9.421875 64.59375 
z
" id="DejaVuSans-106"/>
     <path d="M 48.78125 52.59375 
L 48.78125 44.1875 
Q 44.96875 46.296875 41.140625 47.34375 
Q 37.3125 48.390625 33.40625 48.390625 
Q 24.65625 48.390625 19.8125 42.84375 
Q 14.984375 37.3125 14.984375 27.296875 
Q 14.984375 17.28125 19.8125 11.734375 
Q 24.65625 6.203125 33.40625 6.203125 
Q 37.3125 6.203125 41.140625 7.25 
Q 44.96875 8.296875 48.78125 10.40625 
L 48.78125 2.09375 
Q 45.015625 0.34375 40.984375 -0.53125 
Q 36.96875 -1.421875 32.421875 -1.421875 
Q 20.0625 -1.421875 12.78125 6.34375 
Q 5.515625 14.109375 5.515625 27.296875 
Q 5.515625 40.671875 12.859375 48.328125 
Q 20.21875 56 33.015625 56 
Q 37.15625 56 41.109375 55.140625 
Q 45.0625 54.296875 48.78125 52.59375 
z
" id="DejaVuSans-99"/>
    </defs>
    <g transform="translate(159.268688 42.5568)scale(0.12 -0.12)">
     <use xlink:href="#DejaVuSans-67"/>
     <use x="69.824219" xlink:href="#DejaVuSans-97"/>
     <use x="131.103516" xlink:href="#DejaVuSans-109"/>
     <use x="228.515625" xlink:href="#DejaVuSans-101"/>
     <use x="290.039062" xlink:href="#DejaVuSans-114"/>
     <use x="331.152344" xlink:href="#DejaVuSans-97"/>
     <use x="392.431641" xlink:href="#DejaVuSans-32"/>
     <use x="424.21875" xlink:href="#DejaVuSans-67"/>
     <use x="494.042969" xlink:href="#DejaVuSans-97"/>
     <use x="555.322266" xlink:href="#DejaVuSans-108"/>
     <use x="583.105469" xlink:href="#DejaVuSans-105"/>
     <use x="610.888672" xlink:href="#DejaVuSans-98"/>
     <use x="674.365234" xlink:href="#DejaVuSans-114"/>
     <use x="715.478516" xlink:href="#DejaVuSans-97"/>
     <use x="776.757812" xlink:href="#DejaVuSans-116"/>
     <use x="815.966797" xlink:href="#DejaVuSans-105"/>
     <use x="843.75" xlink:href="#DejaVuSans-111"/>
     <use x="904.931641" xlink:href="#DejaVuSans-110"/>
     <use x="968.310547" xlink:href="#DejaVuSans-32"/>
     <use x="1000.097656" xlink:href="#DejaVuSans-82"/>
     <use x="1069.517578" xlink:href="#DejaVuSans-101"/>
     <use x="1131.041016" xlink:href="#DejaVuSans-112"/>
     <use x="1194.517578" xlink:href="#DejaVuSans-114"/>
     <use x="1235.599609" xlink:href="#DejaVuSans-111"/>
     <use x="1296.78125" xlink:href="#DejaVuSans-106"/>
     <use x="1324.564453" xlink:href="#DejaVuSans-101"/>
     <use x="1386.087891" xlink:href="#DejaVuSans-99"/>
     <use x="1441.068359" xlink:href="#DejaVuSans-116"/>
     <use x="1480.277344" xlink:href="#DejaVuSans-105"/>
     <use x="1508.060547" xlink:href="#DejaVuSans-111"/>
     <use x="1569.242188" xlink:href="#DejaVuSans-110"/>
     <use x="1632.621094" xlink:href="#DejaVuSans-32"/>
     <use x="1664.408203" xlink:href="#DejaVuSans-69"/>
     <use x="1727.591797" xlink:href="#DejaVuSans-114"/>
     <use x="1768.689453" xlink:href="#DejaVuSans-114"/>
     <use x="1809.771484" xlink:href="#DejaVuSans-111"/>
     <use x="1870.953125" xlink:href="#DejaVuSans-114"/>
     <use x="1912.066406" xlink:href="#DejaVuSans-115"/>
    </g>
   </g>
   <g id="legend_1">
    <g id="patch_7">
     <path d="M 398.149563 100.591175 
L 479.648 100.591175 
Q 481.648 100.591175 481.648 98.591175 
L 481.648 55.5568 
Q 481.648 53.5568 479.648 53.5568 
L 398.149563 53.5568 
Q 396.149563 53.5568 396.149563 55.5568 
L 396.149563 98.591175 
Q 396.149563 100.591175 398.149563 100.591175 
z
" style="fill:#ffffff;opacity:0.8;stroke:#cccccc;stroke-linejoin:miter;"/>
    </g>
    <g id="line2d_17"/>
    <g id="line2d_18">
     <g>
      <use style="fill:#ff0000;stroke:#ff0000;" x="410.149563" xlink:href="#mcae13345d6" y="61.655237"/>
     </g>
    </g>
    <g id="text_17">
     <!-- All -->
     <defs>
      <path d="M 34.1875 63.1875 
L 20.796875 26.90625 
L 47.609375 26.90625 
z
M 28.609375 72.90625 
L 39.796875 72.90625 
L 67.578125 0 
L 57.328125 0 
L 50.6875 18.703125 
L 17.828125 18.703125 
L 11.1875 0 
L 0.78125 0 
z
" id="DejaVuSans-65"/>
     </defs>
     <g transform="translate(428.149563 65.155237)scale(0.1 -0.1)">
      <use xlink:href="#DejaVuSans-65"/>
      <use x="68.408203" xlink:href="#DejaVuSans-108"/>
      <use x="96.191406" xlink:href="#DejaVuSans-108"/>
     </g>
    </g>
    <g id="line2d_19"/>
    <g id="line2d_20">
     <g>
      <use style="fill:#0000ff;stroke:#0000ff;" x="410.149563" xlink:href="#ma26904fa94" y="76.333363"/>
     </g>
    </g>
    <g id="text_18">
     <!-- Refined -->
     <defs>
      <path d="M 37.109375 75.984375 
L 37.109375 68.5 
L 28.515625 68.5 
Q 23.6875 68.5 21.796875 66.546875 
Q 19.921875 64.59375 19.921875 59.515625 
L 19.921875 54.6875 
L 34.71875 54.6875 
L 34.71875 47.703125 
L 19.921875 47.703125 
L 19.921875 0 
L 10.890625 0 
L 10.890625 47.703125 
L 2.296875 47.703125 
L 2.296875 54.6875 
L 10.890625 54.6875 
L 10.890625 58.5 
Q 10.890625 67.625 15.140625 71.796875 
Q 19.390625 75.984375 28.609375 75.984375 
z
" id="DejaVuSans-102"/>
      <path d="M 45.40625 46.390625 
L 45.40625 75.984375 
L 54.390625 75.984375 
L 54.390625 0 
L 45.40625 0 
L 45.40625 8.203125 
Q 42.578125 3.328125 38.25 0.953125 
Q 33.9375 -1.421875 27.875 -1.421875 
Q 17.96875 -1.421875 11.734375 6.484375 
Q 5.515625 14.40625 5.515625 27.296875 
Q 5.515625 40.1875 11.734375 48.09375 
Q 17.96875 56 27.875 56 
Q 33.9375 56 38.25 53.625 
Q 42.578125 51.265625 45.40625 46.390625 
z
M 14.796875 27.296875 
Q 14.796875 17.390625 18.875 11.75 
Q 22.953125 6.109375 30.078125 6.109375 
Q 37.203125 6.109375 41.296875 11.75 
Q 45.40625 17.390625 45.40625 27.296875 
Q 45.40625 37.203125 41.296875 42.84375 
Q 37.203125 48.484375 30.078125 48.484375 
Q 22.953125 48.484375 18.875 42.84375 
Q 14.796875 37.203125 14.796875 27.296875 
z
" id="DejaVuSans-100"/>
     </defs>
     <g transform="translate(428.149563 79.833363)scale(0.1 -0.1)">
      <use xlink:href="#DejaVuSans-82"/>
      <use x="69.419922" xlink:href="#DejaVuSans-101"/>
      <use x="130.943359" xlink:href="#DejaVuSans-102"/>
      <use x="166.148438" xlink:href="#DejaVuSans-105"/>
      <use x="193.931641" xlink:href="#DejaVuSans-110"/>
      <use x="257.310547" xlink:href="#DejaVuSans-101"/>
      <use x="318.833984" xlink:href="#DejaVuSans-100"/>
     </g>
    </g>
    <g id="line2d_21">
     <path d="M 400.149563 91.011487 
L 420.149563 91.011487 
" style="fill:none;stroke:#000000;stroke-dasharray:5.55,2.4;stroke-dashoffset:0;stroke-width:1.5;"/>
    </g>
    <g id="line2d_22"/>
    <g id="text_19">
     <!-- Threshold -->
     <defs>
      <path d="M -0.296875 72.90625 
L 61.375 72.90625 
L 61.375 64.59375 
L 35.5 64.59375 
L 35.5 0 
L 25.59375 0 
L 25.59375 64.59375 
L -0.296875 64.59375 
z
" id="DejaVuSans-84"/>
      <path d="M 54.890625 33.015625 
L 54.890625 0 
L 45.90625 0 
L 45.90625 32.71875 
Q 45.90625 40.484375 42.875 44.328125 
Q 39.84375 48.1875 33.796875 48.1875 
Q 26.515625 48.1875 22.3125 43.546875 
Q 18.109375 38.921875 18.109375 30.90625 
L 18.109375 0 
L 9.078125 0 
L 9.078125 75.984375 
L 18.109375 75.984375 
L 18.109375 46.1875 
Q 21.34375 51.125 25.703125 53.5625 
Q 30.078125 56 35.796875 56 
Q 45.21875 56 50.046875 50.171875 
Q 54.890625 44.34375 54.890625 33.015625 
z
" id="DejaVuSans-104"/>
     </defs>
     <g transform="translate(428.149563 94.511487)scale(0.1 -0.1)">
      <use xlink:href="#DejaVuSans-84"/>
      <use x="61.083984" xlink:href="#DejaVuSans-104"/>
      <use x="124.462891" xlink:href="#DejaVuSans-114"/>
      <use x="165.544922" xlink:href="#DejaVuSans-101"/>
      <use x="227.068359" xlink:href="#DejaVuSans-115"/>
      <use x="279.167969" xlink:href="#DejaVuSans-104"/>
      <use x="342.546875" xlink:href="#DejaVuSans-111"/>
      <use x="403.728516" xlink:href="#DejaVuSans-108"/>
      <use x="431.511719" xlink:href="#DejaVuSans-100"/>
     </g>
    </g>
   </g>
  </g>
 </g>
 <defs>
  <clipPath id="p8b4ab5a99c">
   <rect height="311.5728" width="419.058" x="67.59" y="48.5568"/>
  </clipPath>
 </defs>
</svg>
